<svg xmlns="http://www.w3.org/2000/svg" viewBox="0 0 2233.59 926.06"><defs><style>.cls-1{fill:#bdd6e8;}.cls-2{fill:#164476;}.cls-3{fill:#d74249;}.cls-4{fill:#15518d;}.cls-5{fill:#afc7e8;}.cls-6{fill:#fac2c2;}.cls-7{fill:#f1b6aa;}.cls-8{fill:#1a518a;}.cls-9{fill:#387fc2;}.cls-10{fill:#005082;}.cls-11{fill:#1f2d30;}.cls-12{fill:#afc8e8;}.cls-13{fill:#202e31;}.cls-14{fill:#eaaaa0;}.cls-15{fill:#f9f9fa;}.cls-16{fill:#f7aba8;}.cls-17{fill:#1f2e31;}.cls-18{fill:#db9589;}.cls-19{fill:#eaaf25;}.cls-20{fill:#ebaf26;}.cls-21{fill:#406eb5;}.cls-22{fill:#262b2e;}.cls-23{fill:#262c2f;}.cls-24{fill:#2a5ea9;}.cls-25{fill:#295ea8;}.cls-26{fill:#242b2d;}.cls-27{fill:#141b20;}.cls-28{fill:#242d30;}.cls-29{fill:#b6cdea;}.cls-30{fill:#192f49;}.cls-31{fill:#a8a787;}.cls-32{fill:#9ba180;}.cls-33{fill:#616161;}.cls-34{fill:#939292;}.cls-35{fill:#e7e6e6;}.cls-36{fill:#fafafb;}.cls-37{fill:#aec9e9;}.cls-38{fill:#aec8e8;}.cls-39{fill:#f8f9fa;}.cls-40,.cls-68{fill:#2260ad;}.cls-41{fill:#214369;}.cls-42{fill:#163c5b;}.cls-43{fill:#14528e;}.cls-44{fill:#f9fbfb;}.cls-45{fill:#f9fafb;}.cls-46{fill:#17518d;}.cls-47{fill:#142d47;}.cls-48{fill:#f4f9f5;}.cls-49{fill:#f1a3a0;}.cls-50{fill:#252d31;}.cls-51{fill:#262d2f;}.cls-52{fill:#593d3a;}.cls-53{fill:#1c2e35;}.cls-54{fill:#f3f8f4;}.cls-55{fill:#252c2f;}.cls-56{fill:#292d32;}.cls-57{fill:#ece7e3;}.cls-58{fill:#58362b;}.cls-59{fill:#215fac;}.cls-60{fill:#fff;}.cls-61{fill:#fafbfc;}.cls-62{fill:#162f47;}.cls-63{fill:#e8e7e7;}.cls-64{fill:#f4f6f6;}.cls-65{fill:#88b5e1;}.cls-66{fill:#88b6e1;}.cls-67{fill:#89b4e0;}.cls-68{stroke:#fff;stroke-miterlimit:10;}.cls-69{fill:#e53535;}</style></defs><g id="Layer_2" data-name="Layer 2"><g id="Layer_1-2" data-name="Layer 1"><path class="cls-1" d="M2181.91,600.16c-78.22-70.86-185.92,22.51-232-62.47-23.84-44,125.82-165-.71-308.1-57.89-65.48-185.35-87.55-273.31-77.76-32.16,3.58-69.57,18.54-109.66,38.76-3.22,1.62-6.46,3.29-9.72,5l-1,.53c-12.46,6.49-25.16,13.42-38,20.62l-2.62,1.47c-24.93,14-50.42,29-75.94,43.63l-1.06.61c-1.15,8.41-1.22,16.92-2.37,25.33-.47,3.38.16,6.28,2.35,8.65a7.57,7.57,0,0,0-1.72.11c-1.93-.47-7.84,13.29-9.08,14.34a21,21,0,0,0-4.46,5.23,0,0,0,0,1,0,0,4.84,4.84,0,0,1-2.8.75c-15.81-.09-31.64-.05-47.45-.06l.06-.26c0-6.68,2.79-13.14,3.47-19.77-.14.07-.28.14-.41.22q-5.84,3-11.63,6c-37.69,19.16-74.24,34.71-107.8,42.22h-.06c-25,5.63-48.44,6.78-69.38,1.63q-3-.72-5.86-1.62s0,0,0,0h0c-64.51-19.88-110.36-100.56-159.87-168.57-1.17-1.61-2.35-3.21-3.52-4.81-26.88-36.42-55-68.62-87.84-85a106.48,106.48,0,0,0-33.68-10.54,304.87,304.87,0,0,1-32.63-6.42l-1.61-.4c-28.07-7-58.11-17.25-87.84-25.43l-5.48-1.49h0c-26.56-7.07-52.75-12.25-76.95-11.83h0c-1.82,0-3.62.09-5.41.19h0c-14.83.8-28.84,3.88-41.65,10.11h0c-2.15,1-4.27,2.2-6.36,3.43q-4.41,2.61-8.47,5.58c-.48.34-1,.69-1.43,1.05l-.53.41c-.54.41-1.07.82-1.6,1.25A110.67,110.67,0,0,0,613.94,63.6c-79.44,83.84-43.73,290.88-136.23,363-52.16,40.7-121.31,55.3-188.22,63.77s-137.14,8.76-198.25,36.33c-98.62,44.49-165.73,271,63.17,350.47,115.47,40.1,240.39,56.23,362.8,45.69q4.39-.37,8.82-.92c1.81-.23,3.66-.47,5.48-.74h.12l2.71-.4h0l.46-.06h0l3.7-.59h.15l2.69-.47h0c18.29-3.12,36.68-7.56,55-11.41l1-.21,1.48-.31c20-4.17,39.94-7.51,59.42-7.51,60.8,0,122.07,5.17,182.85,7.31q152.19,5.35,304.45,8.29h.05q29.33.57,58.67,1.05l8.58.13q34.88.57,69.74,1h0c3.57.05,7.13.09,10.7.12h0q47.73.57,95.47.88h.06l13.52.09h.07l12,.06h.18q88.62.48,177.22.12h0l9.33,0h0q166.14-.74,332.23-4.34c58.62-1.27,118.45-3,173.49-22.22s105.44-59.15,120-113.09C2243.52,718.64,2229.11,642.91,2181.91,600.16Zm-1509.79,188q-.06,26.42,0,52.84c0,8.78,0,8.71-8.77,8.81-15,.16-29.9-.48-44.86.37a13.37,13.37,0,0,0-2,.82c-2-4-2-8.51-2.79-12.8-.07-.45-.15-.9-.23-1.35,1.21-1,3.31-.46,4.65-1.24,8.31-4.85,10.61-13.14,11.43-21.5.93-9.68,1.85-19.47,1.12-29.25-.27-3.55,1.13-4.53,4.55-4.49,12.77.16,25.53.07,38.29.07h0C671.79,782.8,672.12,785.53,672.12,788.15Zm871.55-24.74c0-2.31.55-4.85-1.17-6.8a17.88,17.88,0,0,0,2.08-1.09c1.88-.92,3.91-.62,5.88-.62,17.47,0,34.93-.17,52.39.05l2.33,0a3.22,3.22,0,0,1,1.51,2.65c.79,6.2,1.53,12.41,2.3,18.61a1.48,1.48,0,0,0-1.27.49,5,5,0,0,0-.29.56l0,.05a1.75,1.75,0,0,0-.28.74.29.29,0,0,0,0,.09c-.55,1.79-.27,3.69-.33,5.54-3.54-.22-7.1-.25-10.68-.24q-26.19,0-52.38,0Q1543.71,773.45,1543.67,763.41Zm-870-151.32,1,0a8.84,8.84,0,0,1,.58,3.73c.09,11.87.12,23.74,0,35.61,0,1.77-.09,3.6-1.59,4.91-2.15-1.66-4.7-1.29-7.13-1.3-13-.06-25.95-.13-38.92,0-4.18.06-6.33-1.14-7-5.63-1.23-8.88-2.57-17.76-4.51-26.53-.8-3.62-1-7.42-2.58-10.83Q643.62,612.45,673.65,612.09ZM1631.38,831a4.21,4.21,0,0,0-2-3.42c0-8.25-.38-16.5-.09-24.74a15.69,15.69,0,0,0-4.72-12.44h0a8.79,8.79,0,0,0-.34-1.93h.06c4.61,1.1,8.86-.15,13-2.11,12-5.73,22.34-13.93,31.47-23.38,5.2-5.39,10.5-7.93,17.94-7.27a64.21,64.21,0,0,0,14.13-.08c-2.69,2.5-4.4,5.77-6.58,8.66-19.81,26.29-38.09,53.6-55.28,81.65-1,1.58-2.5,3.05-1.92,5.19a3.76,3.76,0,0,0-1.83-.91c-1.53-.1-3-.18-4.58-.23C1632.93,843.69,1631.21,837.3,1631.38,831Z"/><path class="cls-2" d="M1874.36,578.54a776.18,776.18,0,0,1-64.22,125.32,432.47,432.47,0,0,1-33.32,46,9.38,9.38,0,0,1-8,3.83c-18.79-.17-37.58-.09-56.38-.06-2.11,0-4.35-.49-6.29.89a14.59,14.59,0,0,1-3.7.6,4.56,4.56,0,0,1-.89-.09l-.28,0h-1c-7.9-.08-15.79,0-23.69,0-12.51.07-25,.21-37.54.13a37.13,37.13,0,0,0-5.46.46l-.75.06a8,8,0,0,1-1,0,7.46,7.46,0,0,1-1.16,0,5.48,5.48,0,0,1-.57-.05c-.11,0-.21,0-.32,0-7.67-.81-15.36-.56-23-.54h-1.53l-2.33,0c-17.46-.22-34.92-.08-52.39-.05-2,0-4-.3-5.88.62a17.88,17.88,0,0,1-2.08,1.09l-.27.12a1.36,1.36,0,0,1-.35,0,8,8,0,0,1-2.82-1.12l-.15-.08c-7.39-1.33-14.82-.65-22.22-.59h-1.18c-29.24,0-58.49-.23-87.73-.15-29.92.07-59.85-.09-89.77.33-2.29,0-4.7.47-6.59-1.41a3.61,3.61,0,0,1-.51-1.14,3,3,0,0,1-.08-.41,18.7,18.7,0,0,1,0-2.8c.11-18.62.29-37.26,0-55.88-.76-46.77,9.74-91.33,26.22-134.67,4-10.38,8.87-20.49,16.5-28.88,5.71-6.29,13.17-10,20.52-13.92a6.54,6.54,0,0,1,1.16-.25,5.07,5.07,0,0,1,1.61,0,8.74,8.74,0,0,1,4.36,2.59c18.78,17.91,38.26,35,59.38,50.12,17.75,12.71,36.09,24.37,57,31.4,3.12,1.05,5.56.89,8.34-1.07,30.44-21.5,59.92-44.22,88.14-68.55,6.66-5.75,12.5-12.42,18.83-18.56,1.47-1.43,2.65-3.54,5.28-3.06,4.74,1.52,9.47,3.12,14.24,4.54,15.55,4.63,27,13.89,35.22,28.11a300.89,300.89,0,0,0,28.89,41.79c10.75,13,13.34,12.91,22.12-1.17,12.59-20.21,22.19-42,32.23-63.49,3.15-6.77,6.2-13.59,9.24-20.41,2-4.5,3.88-9.05,5.82-13.58a2.25,2.25,0,0,1,2.08-.3l.65.46c.26.17.52.36.77.55,8.86,6.38,16.37,14.35,24.64,21.42,13.66,11.66,26.82,23.88,40.29,35.77,5.79,5.11,12.58,9.37,16.6,16.35C1879.13,566.4,1879.21,566.44,1874.36,578.54Z"/><path class="cls-3" d="M976.65,610.37c-2.39,2.56-5.56,1.84-8.46,1.84q-51.45.09-102.89,0H711.46c-3.83,0-7.66,0-11.48-.2l-.74,0c-8.19.23-16.36.2-24.55,0l-1,0q-30,.33-60.08,0h-.8c-10.84.25-21.68.12-32.52.06-2.41,0-5.08.22-6.46-2.57,5.18-39.07,10.65-78.09,17.63-116.88.29-1.63.3-3.31.44-5,.48-13.83,4.58-27.06,6.69-40.62.46-2.93.92-6,3-8.37,2.05-8.05,4.6-16,6.07-24.16,4.14-23,17.89-38.23,37.72-49.18a302.4,302.4,0,0,1,45.35-20.6l.56-.22c2.92-1,4.45,1.09,5.89,3.21,5.55,8.09,10.74,16.42,16.12,24.61,17.26,26.24,34.11,52.75,51.57,78.85,2.32,3.46,4,7.28,6.49,10.64,3.83,5.13,3.84,5.21,7.51.21,7.67-10.45,14.78-21.3,22.24-31.9,11.77-16.72,22.67-34,34-51.06,6.42-9.68,12.25-19.75,18-29.86,1.75-3.08,4-4.89,7.69-3.49a368.82,368.82,0,0,1,54.07,21,91.29,91.29,0,0,1,19.42,10.54c5.63,3.93,9.75,8.75,11.27,15.56l.3.94c5,7.16,6.89,15.37,7.75,23.89l.24,1.09c3.36,4.45,2.86,10.05,4.4,15.05,1.78,5.75,3,11.75,2.39,17.89,2.16,16.13,4.43,32.24,6.45,48.39,2.88,23.09,4.93,46.27,6.66,69.47Z"/><path class="cls-4" d="M699.58,610.67q134.55,0,269.1,0c2.66,0,5.32-.16,8-.25q61.64,0,123.27,0c8.75,0,12.41-3.72,12.41-12.44q0-101,.08-202.05c0-2,.09-4,.14-6,1.7-1.77,3.92-1.65,6.08-1.6,62.92,1.31,125.85.72,188.78.9,5.8,0,11.3,1.13,14.84,6.5,1.25,4.46,2.92,8.81,4,13.34.93,4.08-.29,3.26-3.6,4.89-9.56,4.72-19.33,1.5-28.93,2.16-9.85.67-19.78.17-29.67.16,17.76,0,35.52.07,53.28,0,1.73,0,3.32.1,4.68,1.25s2.36,2.45,1.87,4.31-2,2-3.54,2.25a25.28,25.28,0,0,1-4,.18q-26,0-52,0a17.55,17.55,0,0,1-9-2.19c-4.91-2.77-7.36-2.17-11.34,2.11a3.2,3.2,0,0,1-3.61.87c-3.62-1.06-7.67-.58-10.8-3.39-1.46-1.3-2.72-.52-2.41,1.29.59,3.35-.36,7,2.18,10,2,2.31,1.25,5.41,2.11,8.1.64-2.66,1.2-5.38-.84-7.71-1.2-1.36-2.33-2.59-.84-4.26s3.53-1.72,5.55-1.15a4.51,4.51,0,0,1,3.24,3.5,58.47,58.47,0,0,1,.24,8.47q0,148.95,0,297.89c0,1.81-.34,3.68.76,5.33,3.08,6.4,8.29,8,15.1,7.92,23-.29,46.08-.13,69.12-.08,2.58,0,5.37-.55,7.52,1.63a4.25,4.25,0,0,0,3.57,1.25q42.21-.17,84.43-.24,58.07-.09,116.13-.1c1.89,0,4-.82,5.69.87-1.84,1.84-4.23,1.62-6.53,1.7-5.62.18-11.25-.34-16.84.37-2.6.74-3.14,2.74-3.09,5.07.39,16.12-.8,32.25.67,48.37.46,5.09-.8,10.24-1,15.38-.09,2.09-1.68,3.13-3.71,3.41a35.41,35.41,0,0,1-4.49.16q-25.23,0-50.45,0c-2,0-4,.27-5.9-.66-2.1-1.47-1.88-3.76-1.93-5.88-.11-5.49-.32-11,0-16.47.56-8.89-2.1-16-9.87-20.89-2.26-1.56-4.84-1-7.29-1q-69.93-.06-139.86,0H1159c-1.83,0-3.66-.05-5.49,0-3.75,0-5.43-1.92-5.6-5.51-.11-2.16-.11-4.33-.11-6.49q0-62.42,0-124.84a105.55,105.55,0,0,0-.71-11c-.45-4.35-2.92-5.66-6.8-5.27a123.52,123.52,0,0,1-12.47.45q-165.84,0-331.67,0c-5.51,0-11-.66-16.44-.91-6.16-.29-7.29.94-7.43,7-.12,5,.36,10-.53,14.94-.64,3.54-2.39,5.67-6.34,5.67-20.48,0-41,.08-61.44-.06a6,6,0,0,1-2.88-.68c-2.28-1.85-1.79-4.48-1.9-6.91-.49-10.62,1.7-21.16.74-31.83C699.7,615.93,698.6,613.31,699.58,610.67Z"/><path class="cls-2" d="M1637.15,851.23h0a.77.77,0,0,0-.12-.13,3.76,3.76,0,0,0-1.83-.91c-1.53-.1-3-.18-4.58-.23-6.44-.25-12.89-.13-19.34.24h-.08a6.46,6.46,0,0,1-.75.11h0a10.09,10.09,0,0,1-2.33,0c-.23,0-.47-.05-.7-.09l-.4-.06c-4.45-.17-8.9-.26-13.34-.3-5.42,0-10.84,0-16.25,0-7.26,0-14.52.09-21.77,0-13.19-.16-11.91,1.69-11.93-12.06,0-2.86.15-4.34,1.13-5.09s2.38-.78,5-.8c3.36,0,6.71,0,10.07,0,6.79,0,13.58.09,20.36-.09a32.26,32.26,0,0,0,31.31-29.75v-.44c-.07-5.84,0-11.68,0-17.53,0-.5,0-1,0-1.49s0-1,0-1.56c0-1.72-.26-3.4-1.88-4.6a1.49,1.49,0,0,0-.2-.15,1.44,1.44,0,0,0-.44-.09,1.48,1.48,0,0,0-1.27.49,5,5,0,0,0-.29.56l0,.05a4.47,4.47,0,0,0-.28.74.29.29,0,0,0,0,.09c-.55,1.79-.27,3.69-.33,5.54,0,.11,0,.21,0,.31-.35,6.1.74,12.26-.71,18.33-2.07,10.29-7,17.25-14.63,20.8a29.07,29.07,0,0,1-8.8,2.43h0a39.5,39.5,0,0,1-5.09.32h-25.42c-3.88,0-6,0-7.08-.82-1.29-1-1.3-3-1.3-7.35q0-17.12,0-34.25,0-10,0-20.06c0-2.31.55-4.85-1.17-6.8a4.43,4.43,0,0,0-.62-.6c-.26-.55-.51-1.11-.77-1.66l-23.9.21a5.19,5.19,0,0,0-.92.38h0c-2.69,1.37-2,4.26-2,6.64-.13,7.3-.12,14.6-.08,21.9.08,13.13.29,26.26.11,39.39,0,3.81-1,5.29-5.08,5.15-3.3-.11-6.59-.16-9.89-.17-5,0-10,.06-15,.07h-1.55c-8.81,0-17.63,0-26.45,0-1.26,0-3-.34-3.3.88a3,3,0,0,0,.08,1.53.65.65,0,0,0,0,.13l0,.12c2.31,1.79,5,1.38,7.67,1.39q11.73,0,23.47,0,7.51,0,15,0l12.29,0c.89,0,1.87.31,2,1.2a77,77,0,0,1,.06,14h0c0,.29,0,.57-.08.86-.23,2.16-2.06,2.88-4,2.87-3.34,0-6.67,0-10,0-5,0-10,.08-15,.1-7.24,0-14.48,0-21.72-.21-1.46,0-2.93-.08-4.39-.14a7.88,7.88,0,0,0-1.74-.21,6,6,0,0,1-.61.15h0c-2.06.39-4.35,0-6.18,1.15h0l-.1.06-.23.16a4.89,4.89,0,0,0-1,1c-.05.22-.09.45-.12.67a.16.16,0,0,0,0,.1c-1,5.79-.28,11.62-.4,17.44l0,1c-.1,2.63.21,5.31-1.28,7.7-2.89,7.81-9,10.65-16.8,10.74h-5.49q-107.3,0-214.57,0c-3.11,0-6.36-.61-9.25,1.21q-.06,1.11-.12,1.95c-.32,3.78-1,3.79-6.65,3.86h-.49c-28.93.51-57.88-1.09-86.79.94a8,8,0,0,1-4-.33c-6-2.89-12.33-1.71-18.61-1.66-18,.14-35.93,0-53.9.08-8.15,0-15.9,0-23.39-4.8-4-2.58-6.7-4.78-7.69-9.33a42.6,42.6,0,0,1-.83-8.41c-.08-4.48.35-9-.37-13.45-1-6-.41-6.86,5.91-6.88q35.8-.11,71.61,0h.76c5.41,0,5.84.53,5.94,6.1s-.25,11,.21,16.46c.17,2,0,5.2,3.85,3.56,2.19-8.9,1-17.91.68-26.88a3.56,3.56,0,0,0-1.1-2.16l-.21-.12c-3-1.73-6.34-1.13-9.54-1.13h-2q-180.73,0-361.46,0c-9,0-9.06,0-9-9.14.11-17.45-.13-34.91-.28-52.36a15.3,15.3,0,0,0-1.49-7c-.11-.21-.23-.42-.35-.62l0,0a3.92,3.92,0,0,0-1.52-1h0l-.06,0c-7.47-.86-15-.3-22.45-.33a5.92,5.92,0,0,0-2.06.31,4,4,0,0,0-1.42.84.33.33,0,0,0-.13.11h0l0,0h0c-1.67,2.36-1.34,5.09-1.34,7.71q-.06,26.42,0,52.84c0,8.78,0,8.71-8.77,8.81-15,.16-29.9-.48-44.86.37a13.37,13.37,0,0,0-2,.82c-.33.15-.66.3-1,.43a4,4,0,0,1-3.81-.23h0c-9.61.07-19.22.31-28.83.14-3.35-.06-4.19,1-4.13,4.17.05,2.84,1.1,5.89-.79,8.59a3.39,3.39,0,0,0-1,2.26c3.14,3.2,1,7.7,2.76,11.24a2.48,2.48,0,0,0,.48-.82,20.15,20.15,0,0,0,3,8.54c1.44,2.44,1.51,5.3,1.47,8.1.18,2.66,2.86,3.8,3.7,6.06,5.1.89,7.6,4.28,9.07,8.64.14.39.26.79.38,1.2a4.36,4.36,0,0,0,2.94,2.13c1.94.5,4.07.66,5,2.91,2.86,2.49,6.82,2.73,11.4,5.19-22.45,0-43.36-.07-64.27,0-3.81,0-7.61.08-11.42.17h0c-5.63.13-11.27.3-16.9.42a3.66,3.66,0,0,0,1.66.71h-2.84c-1.28,0-2.69-.44-3.81.64,2.17.16,4.35.44,6.52.49h.41c26.13.22,52.26.49,78.39.55,19,.05,37.92-.2,56.89-.31A138.64,138.64,0,0,1,686,921.5c5,.27,9.73.34,14.53-1.83a17.8,17.8,0,0,1,11.3-1c9.08,2.19,18.43,1.87,27.31.61,14.49-2.07,28.93-1.11,43.31-.82,20.59.41,41.13.81,61.7-.46,13.44-.84,26.92,1.42,40.38-.06a6.66,6.66,0,0,1,1,.06c10.27.8,20.56-.1,30.82.47,8.13.45,16.34-.39,24.39,1.22,5.17,1,10.18,1.57,15.14-.78,1.87-.89,3.91-.47,5.91-.36,6.73.36,13.32,1.79,20.07,2.22H944.28q-77.17-.06-154.35,0c-2.27,0-4.73-.36-6.52,1.67,2.31.13,4.62.38,6.93.38q137.34.25,274.67.45c24.13,0,48.26-.09,72.39-.14-.52-2.81-2.85-2.93-5-3.14a43.56,43.56,0,0,0-10.45.33,13.67,13.67,0,0,1-9.16-1.86c2-1.33,15.72-2.2,32.75-2.6h.05c23.71-.55,53.75-.17,67.25,1.18,3.41.34,5.76.74,6.69,1.21-8.79-.89-17.12,2.2-25.77,2.61-1.63.08-3.86-.27-4.37,2.28,1.66.06,3.32.18,5,.17q163.8-.21,327.6-.46c15.46,0,30.93.49,46.38-.41-2.63-2.54-6-1.66-9-1.66q-121.65-.09-243.28,0a20.63,20.63,0,0,0,3.06-.59A38.42,38.42,0,0,1,1333,919c11.79,1.12,23.61.35,35.4.91,6.84.32,13.64-.46,20.46-.86h.06a84.11,84.11,0,0,1,11.88,0l1.64.11h.07c4,.23,8,.15,12,.06h.18c1.68,0,3.36-.08,5-.09,29.75-.27,59.51-.89,89.27-.61,14,.14,28,.85,41.91.16,10.63-.52,21.26,1.21,31.85-.66a14.78,14.78,0,0,1,9.15,1.32h0a18.09,18.09,0,0,1,2.24,1.28c2.48,1.65,5.32,2.25,7.09-1.32h0l1-1.89c2.64-5,7.15-6.15,12.32-5.92a3.4,3.4,0,0,0,2.77-2c-.1-1.6.17-3.08,1.93-3.58,4.14-1.18,5.33-4.77,7.25-8,2.62-4.46,3.36-10.07,7.93-13.36-.15-2.84,2.34-5.17,1.59-8.12a42.14,42.14,0,0,1-.5-8.88,12.1,12.1,0,0,0,.71,4.16q.29-7.67.58-15.33C1636.82,854.65,1638.27,852.58,1637.15,851.23ZM607.77,920.86q-36.71,0-73.4,0h-6c.49,0,1-.08,1.46-.08h5.05q35.7,0,71.4.05a16.49,16.49,0,0,1,3.56-.09C609.19,920.68,608.45,920.86,607.77,920.86Zm482.85-.11-97.59,0c15.44-.58,30.85-2.77,46.37-1a84.72,84.72,0,0,0,15.45.47c13.88-1,27.77.81,41.65-.5C1094.62,920.81,1092.61,920.75,1090.62,920.75Zm160.32-.18a35.3,35.3,0,0,1,4.82-.25C1254.16,920.35,1252.55,920.43,1250.94,920.57Zm47-1.82c4,.61,8.07,1.65,12.13,2l-35.31,0c-2.26,0-4.51-.07-6.77-.17a25.29,25.29,0,0,0,6.23-1,42,42,0,0,1,8.4-1.6h0a57.13,57.13,0,0,1,10.7.12h0C1294.91,918.32,1296.43,918.52,1298,918.75Zm337.68-53.08c0-1.22.09-2.38.09-3.48,0,0,0,0,0,0,0-.28,0-.54,0-.8,0,.19,0,.36,0,.56,0,0,0,0,0,0A32.48,32.48,0,0,1,1635.63,865.67Z"/><path class="cls-5" d="M483.92,758.46c-11.11,11.53-23.91,7-36.21,3.28s-24-9.46-35.35-15.85c-13.58-7.67-26.68-16.06-39.53-24.87a514.91,514.91,0,0,1-52.63-41.56c-10.78-9.67-21.34-19.52-30-31.16-11.08-14.84-18.8-31-17.12-50.12,1.31-14.85,9.7-25.43,22.7-31.7,12.51-6,26.06-8.51,39.57-3.42a205.42,205.42,0,0,1,31,14.77,248.56,248.56,0,0,1,54.43,42.4,274.68,274.68,0,0,1,40.57,55.17,242.88,242.88,0,0,1,22.84,54.85,51.15,51.15,0,0,1,.7,25.1c-1.51.78-2.16-.47-3-1.26-21.52-23.81-43.86-46.8-67.28-68.77-25.25-23.69-51.22-46.47-79.09-67-6.56-4.84-13.24-9.51-20.11-13.9,62.42,42.58,116,95,166.82,150.39C483,755.89,484.44,756.73,483.92,758.46Z"/><path class="cls-6" d="M867.54,194.26c1.16,1.59,2.93,2.05,4.67,2.66,8.48,3,13.2,9,14.33,17.87,1,7.43-4.16,15-12.12,18-3.69,1.39-7.35,2.89-11.09,4.12-2.23.73-2.32,2.5-2.78,4.25-3.18,12-7.06,23.75-14,34.23C838,288.34,827,299.84,812.32,303.61c-12.06,3.11-11,9.52-10.65,17.75.05,1.16,0,2.33,0,3.49-3.3-1.08-2.36-4-2.45-6.21-.33-8.59-.3-9-8.88-8.17a140.07,140.07,0,0,1-33.81-.61c-3.07-.44-4.32.75-4.31,3.75a70.59,70.59,0,0,1-.13,8c-.18,1.67.25,3.87-2.35,4.27,0-4.65-.43-9.34.09-13.93.47-4.2-2-5.88-5-6.73-18.74-5.44-31.59-17.18-40.16-34.69-4.51-9.21-6.85-18.78-9-28.56-.67-3.11-1.82-4.87-5.47-5.11-5.47-.35-10.92-1.87-15.28-5.27-9.06-7.1-9.36-18.88-1-27.27,1.16-1.16,2.53-2.12,3.8-3.17a9.55,9.55,0,0,1,9.16,2.62c.26,1.53-1,1.86-1.94,2.54-4.37,3.35-6.31,6.09-8.18,11.49,13.44-3.34,27.64-3.18,40.61-8.71,7.74-3.43,15.84-6.08,22.94-10.83,2.63-1.76,5.29-3.4,5.18-7.27-.08-2.63,2.35-3.44,4.25-4.36a369.26,369.26,0,0,0,36.8-20.88c6.74-4.27,13.26-8.84,19.72-13.51a109.51,109.51,0,0,1,21.49-12.49c3.28-1.64,6.94-1.85,10.41-2.76,3.63-.94,5.71.11,6.28,3.87,2.33,18.47,8.56,35.83,15.16,53.08,1.89,4.92,2,4.87,5.87,1C866,194.35,866.58,193.61,867.54,194.26Z"/><path class="cls-7" d="M1568.15,443.56c-7.34,6.69-16,11.5-24.1,17.18-15.51,6.79-31.33,9-47.7,3.2-2.8-1-5.67-1.78-8.54-2.53-3.32-1.78-6.07-4.86-10.34-4.49-5.86-5.83-12.86-10.44-18-17.05-9.77-12.51-16.48-26.43-19.34-42.07-.76-4.15-2.39-7-6.49-8.49a31.9,31.9,0,0,1-9.2-5.86c-9.29-8.27-15.89-17.88-15.5-31,1.24-7.25,7.83-12.19,15.5-11.58a25.4,25.4,0,0,1,6.32,1.37c6.08,2.13,6,2.13,6.14-4.6.28-11,1.74-21.85,6.21-32.07,1-2.27,1.77-4.72,4.43-5.71a11.72,11.72,0,0,1,6.89.12c12.26,4.22,25,6.39,37.69,8.84a156.41,156.41,0,0,0,20.12,2.84c6.87.41,13.72,1.95,20.69,2,1.73,0,3.07,1.17,4.54,1.94,6.36,3.92,12.63,8,18.07,13.18,1.3,1.25,3.17,2.72,2.51,4.57-.77,2.17-3.13,1.12-4.85,1.1a23,23,0,0,0-3,0c-1.51.17-3.22.35-3.83,1.89-.78,2,1,3,2.25,4a48.42,48.42,0,0,0,10.39,5.88c4.23,1.91,6,5,5.46,9.55-1.78,14.07-.88,28.21-.77,42.31.1,12.81,2.27,25.45,5,38C1569.26,438.5,1570.33,441.19,1568.15,443.56Z"/><path class="cls-8" d="M1410.15,352.1c-.41,12.95,6.42,22.36,15.09,30.88a56.89,56.89,0,0,1,9.26,40.22c-.18,1.33-.51,2.63-1.85,3.35-2.89,1.18-5.92.81-8.89.81q-84.88,0-169.77,0c-3.84,0-7.69-.11-11.06,2.16-1.82.51-3.49,1.71-5.53,1.29-.91-2.12-2.75-2.11-4.63-2.05-1.22,0-2.51.2-2.89,1.48s1.11,1.27,1.83,1.8c1.77,1.31,2.56,10.54,1.12,12.4-1,1.29-1.86,1.08-2.67-.25-1.12-1.85-.7-3.88-.78-5.85-.09-2.27.47-4.68-2.61-5.77-1.18-.41-1.84-13.18-.93-14.07a1.8,1.8,0,0,1,3,.36c2.78,5.46,8.86,2.66,12.79,5.24,1.23.81,1.79-.54,1.69-1.55-.37-3.75,1.94-4.13,4.7-3.76,3.6.47,7.59-.26,10.24,3.44.46.64,2.17.5,3.31.5q28.7,0,57.38,0c1.46,0,3.74,1,4.08-1.51.27-1.88-1.55-2.71-3-3.57-1.84-1.1-3.86-.86-5.84-.86h-52.76v-1h13.75c13,0,25.95.13,38.92-.09,3.05-.06,8.25,1.3,6.43-5.28a1.14,1.14,0,0,1,1.11-1.36,1.37,1.37,0,0,1,1.5,1c.55,1.31-.44,3,1,4.13,1.23-2.72.59-8.93-1.79-13.17a8.28,8.28,0,0,1-1-4.21c1.81-1,2.79.29,3.75,1.39,3.72,4.27,5.4,19.95,2.72,25a2.32,2.32,0,0,1-1.52,1c1.75-.3,3.42-1.19,5.35.29-2.8-4.33-2.19-8.76-1.73-12.81,1-9-8.59-20.47-16.11-22.39a37.24,37.24,0,0,0-9.39-.92q-74.16,0-148.33,0c-2.79,0-5.69.46-8.31-1-1.56-2.34-.46-4.83-.23-7.19a115.85,115.85,0,0,0,.36-12.9c-.05-3.2-1.46-4.9-4.83-4.89-8,0-15.9,0-23.85,0-2.84,0-4.29,1.2-4.27,4.16,0,4.3.26,8.63-.08,12.9-.25,3.13,3.67,4.42,2.71,7.58a3.73,3.73,0,0,1-5-.21q0-19,.08-37.93c.44-2.36,2.05-3.24,4.25-3.44s4.33-.16,6.49-.16H1346.1c8.37.14,9.89,2.26,7.51,10.53a3.74,3.74,0,0,0-.14,1.93c4.68,6.71.31,13.68.25,20.52,1.74.18,2.16-1.13,3-1.84,1.94-1.8,1-4.31,1.59-6.44a5.92,5.92,0,0,1,.5-1.35c1.91-2.28.79-5.27,1.81-7.77a7.54,7.54,0,0,1,.75-1.47c.57-1.25.45-2.61.68-3.91,1.27-7.18,4.55-10,11.8-10.08,9.46-.07,18.93,0,28.4,0C1409.34,345.36,1409.42,345.47,1410.15,352.1Z"/><path class="cls-9" d="M843.14,140.54c-.41-1.87-.84-3.38-3.5-2.56-3.91,1.2-7.94,2-11.92,3a270.34,270.34,0,0,1-54.11,1.9c-10.28-.7-20.57-.88-30.83-2.25-17.19-2.28-34.21-5.19-50.82-10.27-1.58-.49-3.23-.93-4-2.65a3.45,3.45,0,0,0,1.74-3.24c.18-10.74.46-21.48.72-32.21-2.74-4-1.15-8.45-.91-12.64.26-4.47,1-8.93.75-13.43s1.86-7.09,5.9-8.75a206.39,206.39,0,0,1,39.69-11.62,201.22,201.22,0,0,1,44.71-3.12c28,.91,54.08,8.27,78.13,22.72,3.63,2.18,5.52,4.93,5.41,9.3-.24,9.48.19,19-.28,28.45-2.46,4.82-2.14,9.66-.16,14.52.05.5.2,1,.23,1.48.86,11.32-.52,13.49-11.35,17A41.9,41.9,0,0,0,843.14,140.54Z"/><path class="cls-9" d="M1609.82,255.19a152.27,152.27,0,0,0-1.48,26.83c-1.25.87-2.34,1.81-2.3,3.55.1,5.13-1.07,10.22-.43,15.36,1.6,6.24.34,8.85-5.68,11.15-10.88,4.16-22.36,4.73-33.79,5.19a232.23,232.23,0,0,1-26.64-.41l-2.57-.21c-1.79-.7-3.35-1.78-5.51-1.76-10.87.1-21.49-2.24-32.21-3.54-9.16-1.1-18-3.39-27-4.91-8.47-1.44-16.46-5.14-25.11-6l-.33-.17h0c-2.11-1.07-4.48-1.41-6.67-2.28a11.3,11.3,0,0,1-1.07-.48,10.78,10.78,0,0,1-1.14-1.09c-2.19-2.37-2.82-5.27-2.35-8.65,1.15-8.41,1.22-16.92,2.37-25.33.09-.68.2-1.36.3-2l0-.16c0-.19,0-.39.07-.58,1.08-8.38,1.46-16.82,2.34-25.23.48-4.56,2.78-6.74,6.91-7.93a258.09,258.09,0,0,1,31.53-7.36,186.37,186.37,0,0,1,33.73-2.57c1.57,0,3.15.09,4.71.16,26.13,1.17,51.15,6.92,74.38,19.65,4.67,2.56,9,5.67,13.46,8.6C1608.93,247.35,1610.53,250.58,1609.82,255.19Z"/><path class="cls-9" d="M1241.18,84.18a72.9,72.9,0,0,0-13.25-29.8c-12-15.62-27-25.74-47.53-25.79-5,0-10,.58-14.9-.38-18.77,1.2-34.38,9.14-46.35,23.33-20.44,24.25-22,51.34-9.24,79.39,13.15,29,35.13,50.58,60.43,69.1a10.84,10.84,0,0,0,9-3.43c3.8-3.7,7.93-7.06,11.84-10.66,16.07-14.76,30.12-31.12,40.31-50.43C1239.88,119.53,1245.14,102.78,1241.18,84.18Zm-63,51.71c-8.07.27-14.75-3-20.7-8.14-10.8-9.39-15.37-21.3-12.53-35.21,3-14.48,11.9-24.25,26.35-28.54,14.08-3.13,33,10.73,36,29a36.75,36.75,0,0,1-25.89,41.82C1180.39,135.11,1179.32,135.52,1178.23,135.89Z"/><path class="cls-5" d="M608.92,836.41c-8.46-.36-15.09-5.12-21.31-9.87C563.28,808,545,784,527.51,759.18c-9.18-13-18.41-26-25.82-40.12a355.92,355.92,0,0,1-25.23-62.67c-4.65-15.38-9-30.77-11.67-47.38,4.5,2,8.76,1.54,13,1.54,20.48,0,41-.11,61.45.15,2.89,0,5.69-2.08,8.58-.26-.84,3,.6,5.53,1.58,8.1,4.19,11,7.49,22.21,11.35,33.28.6,1.7,1.28,3.44.52,5.3-1.68,2.23-4.16,1.8-6.42,1.82-9.16.08-18.31,0-27.46.06-1.56,0-3.29-.57-5.11,1.12,5.37,4.32,9.64,9.65,14.86,14,5.4,4.48,10.1,9.65,15.18,14.44a15.38,15.38,0,0,1,4.93,12c-.11,16.47.55,33-.22,49.39-.67,14.11,12,29.11,28.45,28.13a69.14,69.14,0,0,1,7.48,0c2,.09,4,.4,5.38,2.14,3.43,10.26,5.34,20.88,7.63,31.42,1.34,6.16,2.5,12.36,3.64,18.57C610,832.36,610.51,834.5,608.92,836.41Z"/><path class="cls-10" d="M863.8,103.17c-1.1-.23-1.47-.65-1.44-2,.19-9,0-18,.33-26.92a7,7,0,0,0-4-7.16C847.52,61,836.25,55.39,824,51.5c-19-6-38.41-7.87-58.12-7.35A191.86,191.86,0,0,0,709,54.29c-4.49,1.53-8.91,3.19-13.34,4.88-2.89,1.1-4.23,2.73-4,5.94.51,7.63-.7,15.19-1.57,22.73-.2,1.66,2.1,2.89.33,4.42L627.81,69l-.63-.6c-2-7.89.36-15.41,2-23,2.32-2.45,5.63-1.61,8.44-2.45a304.09,304.09,0,0,1,31.47-7.43c6.35-1.19,12.44-3.54,18.76-5.05C715,23.92,742,17,769.16,10.5a36.63,36.63,0,0,1,23,2c26.1,10.85,52.49,21,78.71,31.52,26.85,10.8,53.79,21.34,80.61,32.21,1.93.79,4.81.75,5.07,3.9Z"/><path class="cls-11" d="M1536.93,316.65c-.54-2.72,1.59-1.6,2.46-1.47,14.31,2.06,28.59.71,42.84-.42a79.5,79.5,0,0,0,18.38-4.16c5.15-1.69,4.3-6,5-9.67,9.75,4,12.56,12.39,13,21.75.73,16.1,1.88,32.21.85,48.34a33.2,33.2,0,0,0,7.52,23.63c17.74,22.23,12.34,45,1.65,67.89a3.29,3.29,0,0,1-2.9,2.31c-22,1.82-44,3.71-66.49,5.62,4.44-8.84,9.89-16.86,8.93-26.91-1-12.56-4.63-24.71-5.46-37.34a345.44,345.44,0,0,1,.06-47.72c.6-8.19.89-8.13-6.47-12-3.65-1.93-7.48-3.62-10.57-6.48-3.33-3.08-2.78-5.26,1.58-6.66,3.42-1.09,6.8-.27,10.9.57C1552.09,326.09,1544.13,321.83,1536.93,316.65Z"/><path class="cls-10" d="M1700.11,266c-11.74,2.15-23.45,4.45-35.22,6.42-18.86,3.17-37.56,7.24-56.55,9.65-2.31-.37-2.4-2.06-2.06-3.77,1.75-8.62.43-17.51,2.52-26.13.81-3.29-2.55-5-4.69-6.45a152.37,152.37,0,0,0-41.23-20.11,157.82,157.82,0,0,0-38.49-6.79c-3.17-.15-6.36-.39-9.54-.58-3.44-.2-6.88-.32-10.32-.2a206.85,206.85,0,0,0-58.82,10.61c-2.44.82-3.18,2-3.57,4.55-1.35,8.92-.57,18.09-3.11,26.86a2.48,2.48,0,0,1-.88.38c-1.18.31-2.27-.32-3.33-.8-16.44-7.54-33-14.86-49.3-22.63-1.63-.78-3.43-1.39-4.58-2.89a4.72,4.72,0,0,1-.35-.52l-.18-.34c-1-7.5-1.47-14.94,2.21-22a8.65,8.65,0,0,1,.76-.47l.08-.05c3.53-2,7.58-2.32,11.45-3,13.26-2.29,26.62-4.12,39.8-6.66,19.43-3.73,39-7,58.38-10.65,12.37-2.36,24.7-5.57,37.53-4.89,3.72.2,7.22.65,10.58,2.38q7.6,3.92,15.3,7.65c13.12,6.41,26.38,12.51,39.59,18.7,24.41,11.42,48.44,23.64,73,34.82,9.52,4.33,19.12,8.64,28.18,14C1698.41,263.73,1700.3,263.86,1700.11,266Z"/><path class="cls-7" d="M1551.15,476.07c16.5,13.29,36.47,19,56,25.61.74,4.45-3.44,5.31-5.73,7.05-9,6.8-17.48,14.23-26.55,20.89-9.34,6.86-18.71,13.71-27.84,20.83-6.67,5.2-13.86,9.73-20.19,15.36-3.25,2.89-6.95,5.14-10.45,7.67-6.52,4.71-12.15.94-17.39-2.49-27.48-18-50-41.58-72.94-64.72-1.3-1.32-3.41-2.36-2.84-4.86,4.58-2.76,9.88-3.62,14.78-5.53,6.77-2.62,13.64-5,20.28-8,1.9-.85,3.84-2,6.13-1.41,2,2.32.56,3.23-1.15,4.29,1.74.16,3.57-1.14,5.55-1.5,24-4.4,48.23-7.88,72.42-11.34,1.86-.27,3.64.2,5.46.21S1550.49,478.49,1551.15,476.07Z"/><path class="cls-12" d="M1892,557.61c-.33-3.07-.92-6.14-.94-9.21-.09-17.47,0-34.95-.07-52.42,0-2.68.36-4.87,3-6.25,10.63-5.51,21.37-11.29,33.13-13.31,19.93-3.42,45.13,4.83,52.89,26.81,4.71,13.32,3.19,26.67-2.63,39.58-8.11,18-21.33,31.74-35.66,44.85-13.86,12.67-28.73,24.06-43.32,35.81-1.93,1.55-4.12,4.58-6.68,3.24-1.84-1-.68-4.3-.69-6.57-.11-19.63-.13-39.27-.17-58.91,0-1.31-.29-2.7,1.09-3.59,1.65,1.74,2.56.16,3.65-.78,14.62-12.79,29.22-25.6,44.87-37.13-13.84,9.69-26.48,20.87-39.29,31.85C1898.39,554,1896.16,557.32,1892,557.61Z"/><path class="cls-13" d="M687.94,127.71c27.15,8.21,54.93,12.28,83.25,13.7,18.51.93,36.9.16,55.32-1.13.38,0,.81.46,1.21.7-12.49,5-22.56,13.93-33.6,21.26a406.71,406.71,0,0,1-43.84,25.61c-1.78.89-5.11.86-3.15,4.94.88,1.85-2,3.58-3.7,4.81-7.94,5.6-16.91,9.11-25.87,12.64-5.45.06-5.89-1.09-2.36-7.6-7.73,2.6-15.29,3.06-22.91,2.73-1.94-.08-4,.24-5.59-1.35l-9-2.9c-12.63-7.41-22.11-17.43-26.1-31.9-4.31-15.63,2-29.42,16.68-36.35A54,54,0,0,1,687.94,127.71Z"/><path class="cls-9" d="M1423.48,501.89c12.15,12.1,24,24.55,36.52,36.21,12.77,11.85,26.09,23.13,40.83,32.61,8.13,5.23,10.56,4.93,18.32-.76,15.26-11.2,30-23,45.43-34.08,11.12-8,21.54-17,32.28-25.53,3.51-2.79,7.89-4.56,10.31-8.66,10.44,1.84,21.16,2.5,31,7-4.19,4-8.4,8-12.54,12.1-19.48,19.13-41,35.86-62.68,52.3-12.17,9.22-24.66,18-36.89,27.17-2.54,1.89-4.72,2.37-7.77,1.32-22.09-7.58-41.54-19.83-60.28-33.46-20.73-15.06-40-31.87-58.37-49.64-1.29-1.24-2.59-2-4.41-1.74-.35-1.76,1.06-2.33,2.16-2.9,7-3.66,14-7.45,21-11.21C1419.88,501.82,1421.58,500.58,1423.48,501.89Z"/><path class="cls-14" d="M1813,449.76a13.67,13.67,0,0,0,2.28-12.23c-1.87-7.49-5.1-14.38-8.63-21.17-1.15-2.22-2.26-4.45-3.23-6.75-1.13-2.66-3.88-6-1.17-8.16,3.09-2.42,6.16.78,8.64,2.9,2.87,2.45,5.49,5.18,9.19,8.71-1-8.25-1.71-15.38-2.64-22.49-.79-6.11-1.71-12.2-1.68-18.36,0-1.62-1-4,1.82-4.41,2.34-.35,3.08,1.63,3.79,3.3,2.48,5.82,4,11.95,5.56,18,.61,2.34,1,4.71,2.65,6.93-.34-3.43-.66-6.87-1-10.3-1-9.56-2.93-19-2.81-28.71,0-1.75-.49-4,1.74-4.73s3.22,1.35,4.23,2.8a23.27,23.27,0,0,1,3.42,8.23,174.13,174.13,0,0,0,6.7,23.42c0-6.12,0-12.24,0-18.36,0-2.49.1-5,.31-7.47.16-1.87.66-3.84,2.88-4.13s3.17,1.66,3.81,3.32c2.3,6,2.85,12.28,3.29,18.58a21.11,21.11,0,0,0,1.5,7.88c1.95-4.2,1.49-8.36,2.14-12.28.43-2.61.61-5.27,1-7.89.22-1.37.92-2.64,2.52-2.63s2.18,1.52,2.38,2.79c.69,4.42,1.46,8.86,1.76,13.33,1,14.26,4.67,28.25,4.58,42.58-.12,21.07-5,41.5-9.49,61.92-2.55,11.49-5.68,22.86-8.55,34.29-2.7.17-4.75-1.23-6.56-2.91-3.62-3.38-7.65-6.34-11.23-9.64-7-6.5-15.21-11.71-21.54-19a23.11,23.11,0,0,0-7.28-5.9,5,5,0,0,1-3.22-4.65A169.15,169.15,0,0,1,1813,449.76Z"/><path class="cls-6" d="M715.78,335.88c4.09-.52,7.61-3.29,11.9-3,16.37,8.95,34,13.49,52.53,12.4,16.37-1,32.61-3.48,47.42-11.42a8.89,8.89,0,0,1,6.11,2c1.13,3.5-.47,6.67-2.07,9.32-7.13,11.79-13.35,24.1-20.58,35.83-8.36,13.56-16.57,27.21-25.41,40.47-2.31,3.46-3.77,7.4-6.4,10.67-3.57,4.42-5.67,4.42-8.59-.27-8.5-13.67-17.19-27.22-25.51-41-9.26-15.35-18.83-30.5-26.67-46.65C717.23,341.57,715.58,339,715.78,335.88Z"/><path class="cls-9" d="M715.78,335.88c4.57,8.68,8.92,17.47,13.75,26,5.52,9.77,11.38,19.36,17.24,28.95,6.91,11.32,14,22.53,20.92,33.87,1.53,2.51,3.46,4.73,4.68,7.52,1,2.17,3,3.69,5,.18,5.22-9.16,11.26-17.82,16.75-26.83,6.48-10.64,13.41-21,19.57-31.86,4.68-8.24,9.07-16.65,13.95-24.77a52.7,52.7,0,0,0,6.06-13.11c6,.61,11,4.15,16.49,6.07,3.48,1.21,7,2.41,10.44,3.88-3-.36-4.86.76-6.38,3.5-12.61,22.79-27.09,44.42-41.65,66-11.42,16.9-23.33,33.46-34.8,50.32-2.39,3.51-3.46,2.89-5.43-.18q-15-23.43-30.31-46.71-23.26-35.62-46.57-71.21c-1.21-1.85-2.61-2.95-4.87-2.7C699,341.64,707.17,338.19,715.78,335.88Z"/><path class="cls-3" d="M1813,449.76c-2.15,7.63-6.29,14.39-9.4,21.6-.78,1.8-1.75,3.53-2.62,5.29-5.69-1.36-8.25,1.67-9.66,6.64a2.35,2.35,0,0,1-3.51,1.6l-1.89-.43c-1.37-1.26-2.87-.15-3.6.47-2.28,2-3.79,1.4-5.15-.87-.84-1.4-2.17-1.31-3.51-1.31h-69.25c-1.33,0-2.67-.08-4,0-7.34.64-7.33.65-7.34-6.91,0-6.82.21-13.66-.07-20.47-.18-4.36,1.35-5.77,5.73-5.75,34.8.14,69.59.08,104.38.08C1806.43,449.73,1809.73,449.75,1813,449.76Z"/><path class="cls-9" d="M956.54,80.14c-10-4.2-20-8.51-30.15-12.57-10.43-4.2-21-8.12-31.42-12.25q-20.09-7.93-40.09-16c-21-8.45-41.93-16.86-62.83-25.46-10.08-4.15-20-3-30.14-.32-12,3.19-23.84,6.82-36,9.17-9.9,1.92-19.48,5-29.38,7a158.83,158.83,0,0,0-24.87,6.69c-5.77,2.16-12.24,2.4-18.32,3.8-5.26,1.21-10.48,2.68-15.61,4.36-2.66.86-5.26.41-7.89.58-2.46-3.18-2-6.41-.16-9.66Q673,24.68,716.25,13.94C733.5,9.67,750.77,5.48,768,1.24c7.08-1.73,14-1.85,21,.94q84.22,33.69,168.56,67.16c2.94,1.18,5.55,2.59,5.1,6.37C962.24,79.32,959.6,80.07,956.54,80.14Z"/><path class="cls-9" d="M1700.11,266c-9.09-4.55-18.12-9.24-27.29-13.63-16.88-8.07-33.88-15.89-50.76-24-14.78-7.06-29.3-14.71-44.25-21.4-13.58-6.07-26.52-13.57-40.33-19-7.65-3-16.35-1.18-24.59.19-16.93,2.82-33.78,6.17-50.7,9.08-8.84,1.52-17.75,3.66-26.56,5.16-9.69,1.65-19.43,3.58-29.26,4.6-7.71.8-15.1,3.59-22.91,3.87-2.4-3.27-2.38-6.53,0-9.8,11.56-3.18,23.48-4.46,35.22-6.63,26.63-4.91,53.32-9.45,80-14.14,8-1.41,16-2.93,24-4.2a31.36,31.36,0,0,1,19,2.69q59.34,28.47,118.72,56.88,19.8,9.47,39.62,18.89a24.37,24.37,0,0,1,2.26,1c2.36,1.45,4.58,3.22,3.87,6.32S1703.2,266.23,1700.11,266Z"/><path class="cls-15" d="M601.52,438.74l-9.66,49c-.32-8-.32-8-8.4-8H490.07c-8.25,0-8.28,0-8.25-8.55,0-8.31-.92-7.46,7.48-7.47q49.2,0,98.39,0c3.26,0,7.73.57,7.73-3.95,0-4.29-3.76-5.12-7.89-5.08-22.81.18-45.62.07-68.42.1a26.67,26.67,0,0,0-5.94.39c-2.71.62-4-.86-4.2-2.94a70.35,70.35,0,0,1-.09-10.47c.18-3.44,2.94-3,5.24-3q18.72,0,37.45,0Z"/><path class="cls-5" d="M673.84,657.22a1.3,1.3,0,0,1-.54.86c-2,1.2-4.16,1.08-6.31,1.08q-47.88,0-95.76,0c-2.33,0-4.68,0-6.79-1.2a6,6,0,0,1-.67-.52,5.61,5.61,0,0,1-.48-.51,11.82,11.82,0,0,1-1.93-3.91c-3.09-8.71-6-17.49-9-26.22-1.3-3.77-2.63-7.54-4-11.28-.58-1.57-1-3.17,0-4.76,6.57-.07,13.13-.15,19.7-.2,2,0,4,.12,5.73-1,2.46,1.46,5.16.8,7.76.83,10.39.11,20.78.1,31.17.14a12.33,12.33,0,0,1,.85,1.55c1.61,3.41,1.78,7.21,2.58,10.83,1.94,8.77,3.28,17.65,4.51,26.53.63,4.49,2.78,5.69,7,5.63,13-.16,25.94-.09,38.92,0,2.43,0,5-.36,7.13,1.3l.06,0A1.26,1.26,0,0,1,673.84,657.22Z"/><path class="cls-15" d="M945.43,392.89c-5.2-11.69-15.58-17.55-26.11-23.26-1.57-.85-3.43-1.28-4.58-2.84,4-.1,8,4.32,12.13.25a1,1,0,0,1,.94.07c3.5,5.15,8.24,1.62,12.36,1.63q62.94.18,125.88,0c4.61,0,6.58,1.51,5.47,6.22a10.32,10.32,0,0,0,0,3c.47,8,.47,7.89-7.7,7.87q-43.71-.09-87.42,0c-6.16,0-12.32,0-18.48,0-1.55,0-3.44-.68-4.33,1.47-.38.9-.8,1.13-1.83.52-5.13-3-6-2.52-6.2,3.56C945.51,391.89,945.46,392.39,945.43,392.89Z"/><path class="cls-16" d="M827.63,333.86c-1.93,3.44-5.1,4.47-8.78,5.57-15.24,4.56-30.62,8.12-46.61,7.3a97.85,97.85,0,0,1-28-5.24,129.16,129.16,0,0,1-14.93-6.31,2.62,2.62,0,0,1-1.63-2.3c5.9-1.67,11.79-3.42,17.73-5,1.61-.42,3.13-.78,4.28-2,2.1-4.41.88-9.1.88-13.63,0-4.11,1.72-4.83,5.16-4.17,13.45,2.59,26.93,2.16,40.38.07,3.17-.49,4.49.05,4.61,3.6.15,4.37-1.28,8.9.91,13.13,1.29,3.17,4.63,2.79,7,3.62C814.85,330.63,821.29,332.11,827.63,333.86Z"/><path class="cls-15" d="M953.48,417.72q-3.87-11.94-7.75-23.89c3-2.38,5-.74,7,1.59,1.64,1.94,4,1.33,6.1,1.33q52.95,0,105.91,0c6.48,0,6.48,0,6.75,6.57.38,9.45.38,9.45-9.24,9.45-28.31,0-56.62-.08-84.93.07-4.74,0-9.63,0-14.17,2-.39.17-1.11-.36-1.65-.62C957.92,412.46,955,413.72,953.48,417.72Z"/><path class="cls-17" d="M843.14,140.54c.25-1.78.16-3.48,2.89-3.7,2.42-.2,4.79-1.25,7.14-2.06,9.1-3.13,9.37-3.54,9.45-13,0-1.43-.62-3,1-4.08,18.24,10.93,23.8,26,17.16,46.13a172.87,172.87,0,0,1-13.27,30.44c-2.18,2.12-2.8,6.91-5.95,6.44-2.39-.35-2.65-4.89-3.7-7.61C851.32,176,845.36,158.81,843.14,140.54Z"/><path class="cls-15" d="M960.51,451.75q-3.4-16.47-6.79-32.94c3,.79,4.26,2.53,3.87,5.77-.53,4.31,1.75,5.77,5.77,4.73,3.17-.82,6.17.55,9.31.53,31.13-.15,62.26-.1,93.39-.09,5.86,0,6.27.48,5.53,6.26-.07.49-.08,1-.11,1.49-.59,9.25-.59,9.25-10.07,9.25-28.63,0-57.26.06-85.89-.09-3.13,0-6.16.79-9.59-.44C963.12,445.21,962.82,450.25,960.51,451.75Z"/><path class="cls-9" d="M1787.83,484.89c3.75-.86,3.45-4.55,4.44-7,1.42-3.55,2.6-5.13,6-2.11.66.58,1.8.6,2.72.88,1.09,4,5.46,4.31,7.88,6.91,11.06,11.85,24.65,20.87,36.27,32.11,1.39,1.36,3.72,1.27,4.88,3.05.75,4,4.39,5.61,6.92,8,5.7,5.49,11.63,10.74,17.56,16,2.38,2.12,2.83,3.92.73,6.7s-4.3,5.51-4.27,9.26Z"/><path class="cls-2" d="M1170.34,200c7.51-2.63,12.54-8.5,18.27-13.57a193.63,193.63,0,0,0,19.48-19.8c11.44-13.5,22.23-27.59,28-44.59,2.85-8.38,5.82-17,5.24-26.1-.89-13.89-4.79-26.66-12.73-38.43-7.59-11.26-17.83-18.92-29.56-24.8-5.11-2.56-11-3.45-16.83-3.67-5.57-.21-11.23,1.08-16.71-.86,19.61-1.57,38.31.61,55,12.31,25.23,17.66,35.73,48.66,26,77.9-6.9,20.8-19.7,37.88-34.4,53.67a264.65,264.65,0,0,1-28.68,26.31C1179.49,201.61,1175,202,1170.34,200Z"/><path class="cls-18" d="M1551.15,476.07c1,4.3-2.3,3.76-4.49,3.56-9.44-.87-18.51,1.69-27.72,2.77-9.65,1.13-19,4.06-28.83,4.3a6.08,6.08,0,0,0-3.69,1.22c-1.63,1.23-3.16,2-5.35.46-2.5-1.73-5.3-.48-7.43,1-3.52,2.52-8.07-.22-11.1,4.5-.91-4.1,3.64-4.28,1.7-7,3.22-4.44,8.9-5.71,12.5-9.66a12.87,12.87,0,0,0,4.89-5.37c2.66-3.33,2.65-8.09,5.91-11.1,4.32-1,8,1.45,11.76,2.65,13.54,4.3,26.6,2.63,39.59-2,1.66-.6,3.28-1.7,5.16-.67C1546,466.05,1547.26,471.66,1551.15,476.07Z"/><path class="cls-19" d="M627.81,69q-2,27.57-3.92,55.13c-.17,2.36-.23,4.57,2.23,6a3.68,3.68,0,0,1,1.31,5.27c-4.19,5.55-3.24,12-3.42,18.11-.29,9.82-1.2,19.56-2.17,29.32,0,.16,0,.36-.05.49-6.79,10.58-3.93,23.37-7.89,34.62-.58,1.65-.74,3.53-2.94,3.15s-1.44-2.51-1.22-3.7c1.38-7.41-.25-14.81.06-22.14.78-18.53,2.19-37.06,6.78-55.17a9.45,9.45,0,0,0-.19-4.91c-.73-2.63-1.12-4.93,2.42-6.48,2.84-1.25,2.58-4.69,2.74-7.5q1.29-22.36,2.59-44.73c.3-1.58-.21-3.24.25-4.77s.66-3.79,3.36-2.65Z"/><path class="cls-20" d="M1374.75,284.1a5.58,5.58,0,0,0-.08,2.46,21.43,21.43,0,0,1,1.17,10.2c-.68,6.63-3.45,13.09-3.47,19.77l-.06.26c-1.74,7.68-2.24,15.56-3.7,23.27-.56,2.93-.54,5.82-3.79,8.07a6,6,0,0,0-1.77,3.51h0a33.35,33.35,0,0,0-.7,4.49c-.18,1.6.24,3.33-1,4.67l0,0c-1.12,2.66-.26,5.78-1.92,8.32l0,.28h0s0,0,0,.05c-1,2.41-.15,5.3-2,7.49a33.5,33.5,0,0,1-2.08,3.27c-.72.93-1.78.64-2.69.25s-.82-1.3-.65-2.1c.3-1.44.79-2.85,1-4.3.7-5.16,2.74-10.31.2-15.5.11-.37.23-.74.33-1.11,3.69-12.84,2.39-26.57,6.74-39.29.13-.38-.25-.93-.4-1.4a75.45,75.45,0,0,0,4-13.81,55.06,55.06,0,0,0,.75-6.19c.16-2.53.15-5.17,3.24-6,1.88-.49,1.54-1.9,1.7-3.13,2.06-15.77,4.21-31.53,6-47.33.34-2.9,2.4-5.55,1.26-8.64a1.4,1.4,0,0,1,.44-.87h0l0,0a1.58,1.58,0,0,1,.56-.3c2,0,2.29,1.34,2.44,2.86a.43.43,0,0,1,0,.11c0,.21.09.42.13.63a24.87,24.87,0,0,1-.2,7.15C1378.55,255.56,1376.46,269.8,1374.75,284.1Z"/><path class="cls-1" d="M1147.38,386.66q80.1.06,160.19.08c9.07,0,14.72,4.94,20,11.64,5,6.38,3.39,13.44,3.72,20.38.11,2.34-.72,5.11,2.87,5.87h-9.59c5.69-3.86,3.35-23.16-3.21-27.86-2.93-4.8-7.69-5.93-12.74-6-20.13-.12-40.26-.1-60.39-.11-31.11,0-62.24.5-93.33-.23-14.11-.33-28.2-.78-42.32-.55,0-1.06,0-2.11,0-3.17l5-.08a5.44,5.44,0,0,1,3.62-1.35q11.33-.33,22.65,0A5,5,0,0,1,1147.38,386.66Z"/><path class="cls-21" d="M623.43,67.12c-10.1-3.75-20.21-7.48-30.3-11.26-3-1.13-6.3-2.5-6-6.34.32-4.1,3.91-4.79,7.26-5.51,10.52-2.29,20.79-5.68,31.46-7.32a5.58,5.58,0,0,1,1.38,4.13c.08,6.44.43,12.9-.59,19.3C626.21,62.71,625.86,65.41,623.43,67.12Z"/><path class="cls-9" d="M1377.23,230.86a4.44,4.44,0,0,0-.44.87l-31.18-14.14c-2.65-1.21-4.47-3.17-4.08-6.16s2.78-3.88,5.4-4.29l33.34-5.35c.79,0,1.36.45,1.21,1.14-1.22,5.62.23,11.58-2,17C1378.07,223.5,1380,227.65,1377.23,230.86Z"/><path class="cls-22" d="M1723.69,335.31l-5-.94c-4.8-.91-6.48.83-5.42,5.67.21,1,.64,1.9.8,2.88,1.27,7.59-3.53,12.26-11.09,10.81-1.14-.22-2.25-.62-3.4-.79-4.24-.65-5.9,1.09-5.12,5.38.24,1.3.77,2.56.94,3.87.93,6.95-3.87,11.61-10.75,10.38-3.11-.56-6.1-1.55-9.27-.13-1.14.51-2.78.66-3.45-1a3.24,3.24,0,0,1,1.43-4.3c3.07-1.92,6.34-1.49,9.66-.85,6.92,1.33,7.24,1,6.35-6-.6-4.69-1.24-9.23,3.93-12.25,3.18-1.86,6.11-.89,9.17-.32,5.75,1.08,6.36.49,5.81-5.42-.43-4.68-2.1-9.6,3.45-12.89,3.32-2,6.43-.94,9.66-.4,5.62.94,6.47.13,5.7-5.62-.39-2.94-1.39-5.86-.21-8.86.88-2.25,2.53-3.94,4.87-3.18s1.62,3.08.87,4.73c-1.22,2.71-.23,5.19.27,7.79C1734.14,330.47,1730.63,335.24,1723.69,335.31Z"/><path class="cls-23" d="M421.83,566.12c-5.41-.3-8.36-2.29-9.14-6.74-.35-2-.34-4-.6-6-.6-4.49-1.93-5.23-5.95-3.42-.6.27-1.17.63-1.77.92-9,4.44-14.4,1.32-15.23-8.76-.6-7.15-1.35-7.59-7.73-4.49-9.05,4.4-14.3,1.35-15.18-8.81-.19-2.12-.22-4.21-1.61-6.13-1-1.42-2-3.74,0-4.85,2.18-1.22,4.21.14,5.35,2.27a18.34,18.34,0,0,1,1.78,7.72c.37,6.08,1.81,6.91,7.46,4.37.91-.4,1.79-.9,2.72-1.23,7.12-2.57,12.12.59,13,8.21.15,1.32,0,2.67.13,4,.51,4,2.21,4.87,5.74,3.1a36.26,36.26,0,0,1,4.45-2.23c6.76-2.29,11.56.8,12.4,7.88.16,1.32.13,2.66.28,4,.53,4.8,2.13,5.66,6.61,3.47,2.4-1.17,4.72-2.48,7.45-2.69,2.15-.17,3.6.69,3.88,2.92s-1.31,2.38-2.89,2.46C428.52,562.33,425.22,566,421.83,566.12Z"/><path class="cls-9" d="M1304.51,253.62a19.91,19.91,0,1,0,0,39.81c11.32-.13,19.7-8.71,19.66-20.15A19.72,19.72,0,0,0,1304.51,253.62ZM1304.2,288a14.4,14.4,0,0,1-14.4-14.6,14.59,14.59,0,0,1,29.18.35A14.46,14.46,0,0,1,1304.2,288Z"/><path class="cls-24" d="M1678.57,850.91c3.41.08,5.84,1.64,8.45,2.69,4,1.61,5.57.63,5.93-3.58,0-.49,0-1,0-1.49.28-11.19,5-14.16,15.35-9.6,5.53,2.44,6.7,1.7,6.94-4.42,0-.33,0-.67,0-1,.36-9.89,5.44-13.14,14.46-9.24,7.07,3.06,7.94,2.51,8.1-5.18,0-2.17.06-4.33,1.15-6.31.63-1.15,1.31-2.85,2.7-2.41,1.56.49,3,2.37,2.37,3.92-1.22,3.11-.57,6.25-1,9.35-.88,6.32-5.86,9.21-12.06,7.05-9.09-3.16-9.09-3.16-10.4,6.59-.95,7.09-5.75,9.94-12.51,7.4-.47-.17-.94-.34-1.39-.54-7.43-3.14-8.25-2.63-8.42,5.26-.19,9.09-5.48,12.47-14,9-2-.82-3.82-1.84-6.09-2a3.45,3.45,0,0,1-3-3.9C1675.47,850.62,1677.74,851.42,1678.57,850.91Z"/><path class="cls-25" d="M995.09,213.49c7.23.22,7.94-.83,5.32-7.57-3.56-9.14-.14-14.12,9.68-14.1,7.76,0,8.15-.57,5.34-8-3.33-8.81.18-13.88,9.62-13.9,8,0,8.33-.55,5.56-7.85a13.62,13.62,0,0,1-1.31-6.28c.13-1.31.19-3.26,1.53-3.34,1.52-.09,3.53,1,3.66,2.79.23,3.1,1.78,5.67,2.62,8.51,1.92,6.46-1.52,11.24-8.29,11.6-10.06.53-10.06.53-6.94,10.16,2.08,6.41-1.29,11.26-8.06,11.63-10,.53-10,.53-7.09,10,2,6.71-1.38,11.48-8.43,11.85-2.63.14-5.27-.43-7.9.49A3.53,3.53,0,0,1,986,217.3c-.56-1.89,1.76-2.65,3.23-3.08A34.49,34.49,0,0,1,995.09,213.49Z"/><path class="cls-26" d="M1950.87,701.21c-10.08,0-17.67-8.14-17.58-18.89.07-9.4,8.55-17.47,18.26-17.36,9.5.1,17.58,8.3,17.73,18A18.2,18.2,0,0,1,1950.87,701.21Z"/><path class="cls-27" d="M482.62,753.48c.59.81,1.07,1.74,2.23,1.87,31.25,33.87,61.09,68.95,90.06,104.78,1,1.28,2,2.64,3,4,0,.89,1,2.25-1,2.26-18.24-21.77-36.35-43.63-54.75-65.25-12.36-14.54-24.95-28.89-38.21-42.64l-2.11-2.94C481.07,754.44,481.11,753.67,482.62,753.48Z"/><path class="cls-28" d="M522,896.64a11.52,11.52,0,0,1-11.83,11.94A11.91,11.91,0,0,1,498,896.81a12.17,12.17,0,0,1,12-12.09A11.89,11.89,0,0,1,522,896.64Z"/><path class="cls-27" d="M1706.13,754.48a1203.1,1203.1,0,0,0-69.26,101.83c-.94-1.71-.18-3.34.23-5,0-.08,0-.16-.07-.23-.58-2.14,1-3.61,1.92-5.19,17.19-28,35.47-55.36,55.28-81.65,2.18-2.89,3.89-6.16,6.58-8.66l.42-.38,0,0a2.22,2.22,0,0,1,.27-.19,4.31,4.31,0,0,1,1.66-.67C1704.18,754.24,1705.22,753.25,1706.13,754.48Z"/><path class="cls-27" d="M616.75,851.6c-2,2.93-3.67,2.93-5.11-.41h0c-.87-4.93-1.06-10-2.71-14.77-1.63-15-5.54-29.66-8.67-44.42-.79-3.73-1.71-7.44-2.57-11.16a4,4,0,0,1,.68-.47c1.11-.6,1.76,0,2.34.76.26.35.5.75.77,1.09l.09.11c3.2,9.63,4.82,19.63,7,29.51,1.73,7.95,3.36,15.93,4.72,24q.11.53.18,1.05c.08.45.16.9.23,1.35.81,4.29.84,8.76,2.79,12.8C616.54,851.19,616.64,851.4,616.75,851.6Z"/><path class="cls-29" d="M1712.72,425.76c4.28-3.76,8.47-3.39,12.17-4.33a45.19,45.19,0,0,1,26.3,1c1.25.43,3.46.76,3.15,2.5-.28,1.54-2.28.79-3.5.79C1738.58,425.78,1726.31,425.76,1712.72,425.76Z"/><path class="cls-27" d="M524.5,920.15q31.18.11,62.38.19c7.94,0,15.89,0,24.75,0-2.47,1.39-4.16.94-5.77.94q-40.2,0-80.38,0c-2,0-4,.16-6,.25l-71.62-.3c-.36-.17-.48-.34-.37-.51s.24-.26.36-.26Z"/><path class="cls-30" d="M548.36,610.76q7.73,22.82,15.44,45.62c.26.73.08,1.3-.71,1.47-1.23.27-1.82-.45-2.14-1.51q-7.22-21.11-14.42-42.22c-.48-1.43-2.44-3.6,1.27-3.68A.53.53,0,0,0,548.36,610.76Z"/><path class="cls-31" d="M623.43,67.12c3.48-9.93,1.86-20.26,2.41-30.42l3.86-1.28c0,3.22.11,6.44.16,9.66-.81,8-2.34,15.87-2.11,23.94-4.29,1-2.17,5.08-3.61,7.43C623,73.4,625.09,70.12,623.43,67.12Z"/><path class="cls-32" d="M1383.46,201.09v9.8a62.43,62.43,0,0,0-2.06,22.84,1.54,1.54,0,0,1-.46.34.74.74,0,0,1-.52.05c-.41-.12-.76-.59-1.15-.86-.27-1.14-.51-2.32-2-2.4h0c0-9.8,2.58-19.31,3-29.06A3.6,3.6,0,0,1,1383.46,201.09Z"/><path class="cls-33" d="M447.88,920.43c0,.26,0,.52,0,.77H399C415.3,920.67,431.58,919.79,447.88,920.43Z"/><path class="cls-27" d="M579.64,877.59c.14-1.4.29-2.81.43-4.21,0,4.2,2,7.51,4.08,10.88,1.78,2.87,2.72,6,.47,9.15A33,33,0,0,1,579.64,877.59Z"/><path class="cls-34" d="M1892.84,921.17a3.36,3.36,0,0,0,0-.71c15.26-.8,30.51.26,45.76.35C1923.36,921.07,1908.11,921.93,1892.84,921.17Z"/><path class="cls-27" d="M588.32,899.47c4.56-.76,10.72,4.43,10.58,9,0,.29-.74.57-1.13.85A31.37,31.37,0,0,1,588.32,899.47Z"/><path class="cls-27" d="M1636.08,876.36c-1.16-3.33-1.38-10.65.2-16.93v12.21Z"/><path class="cls-27" d="M600.71,911.44c5-.32,5.3-.12,5,2.91A11.22,11.22,0,0,1,600.71,911.44Z"/><path class="cls-35" d="M1477.14,477.77c-3.14,4.68-8.55,6.18-12.9,9.15-13.35,5.65-26.79,11-40.76,15a272,272,0,0,0-28.24,14.83c-24,9.89-33.44,31.16-41.18,53.43-12.66,36.42-21,73.88-22.11,112.47-.61,21.39.4,42.87.38,64.31,0,1.89.75,4-1,5.64l-79.06-.12c-8.52,0-10.76-1.52-13.71-9.23-1.18-1.48-.61-3.21-.61-4.82q0-150.93,0-301.87c0-2.69-.32-5.42,2.59-7,3.26-3.77,7.58-4.24,12.23-4.24q86.55.09,173.11,0c2.49,0,5-.08,7.48-.12,2,2.32,1.35,5,1,7.62a121.9,121.9,0,0,1-4.16,18.48c-3,10.43-3,10.54,7.62,13.54,11.52,3.26,23,6.81,34.53,10C1474.14,475.33,1476.32,475.46,1477.14,477.77Z"/><path class="cls-36" d="M1610.43,774.46c-.9-5.58-1.52-11.2-2.34-16.79a3.94,3.94,0,0,0-1.38-2.7c-1.12-.91-2.79-1-4.61-1-18.64.09-37.29,0-55.93.06-1.3,0-2.68-.35-3.88.51-.14.5-.27,1-.41,1.5v27.46q0,19.89,0,39.78c0,2.18-.54,4.29,2.82,4.38h.43c5-.11,10-.11,15-.09,7.11,0,14.23.08,21.34-.1a25.32,25.32,0,0,0,9.92-2.34,27.71,27.71,0,0,0,15.87-22.69c.75-3.73.11-7.5.37-11.24.17-2.47-.05-4.95-.09-7.42a21.31,21.31,0,0,1,.79-7.08h.35l.33-.12a2.13,2.13,0,0,0,.6-.08C1610.54,776.18,1610.56,775.21,1610.43,774.46Zm-2.71,2.26a5,5,0,0,0-.29.56l0,.05a1.75,1.75,0,0,0-.28.74.29.29,0,0,0,0,.09c-.55,1.79-.27,3.69-.33,5.54-3.54-.22-7.1-.25-10.68-.24q-26.19,0-52.38,0,0-10,0-20.06c0-2.31.55-4.85-1.17-6.8a17.88,17.88,0,0,0,2.08-1.09c1.88-.92,3.91-.62,5.88-.62,17.47,0,34.93-.17,52.39.05l2.33,0a3.22,3.22,0,0,1,1.51,2.65c.79,6.2,1.53,12.41,2.3,18.61A1.48,1.48,0,0,0,1607.72,776.72Z"/><path class="cls-37" d="M1703.2,754.32l-.77.76-.33.33q-.64.11-1.29.18a64.21,64.21,0,0,1-14.13.08c-7.44-.66-12.74,1.88-17.94,7.27-9.13,9.45-19.45,17.65-31.47,23.38-4.13,2-8.38,3.21-13,2.11a.07.07,0,0,1-.06,0l-.37-.09a5,5,0,0,1-.38-3h0A19.55,19.55,0,0,1,1624,783l.57-2.13c0-.07,0-.14,0-.21.61-2.29,1.2-4.59,1.79-6.88.1-.41.21-.82.32-1.23,1.16-4.47,2.33-8.94,3.65-13.37l0-.12.18-.61a6.46,6.46,0,0,1,1.22-2.8,2.65,2.65,0,0,1,1.18-.71c.92-1.64,2.52-1.34,4-1.34q31.29-.11,62.59-.15C1700.8,753.42,1702.24,753,1703.2,754.32Z"/><path class="cls-38" d="M1630.5,758.7l-.12.45c-1.22,4.46-2.46,8.91-3.65,13.37q-1.1,4.05-2.11,8.11c-.32,1.3-.64,2.61-.95,3.91-.06.25-.13.51-.2.75a4.11,4.11,0,0,1-1.88,2.72l-.24.12-.26,0a3.51,3.51,0,0,1-.53.1c-3.12.39-4.82-2-6.94-3.87a10,10,0,0,0-1.16-.9c0,.24,0,.49,0,.73.07,4.5.17,8.87,0,13.23-.06,1.42.33,3.18-.87,4.18a3,3,0,0,1-1.27.62c0-6.1,0-12.2-.11-18.29,0-1,0-2,0-2.94,0-1.54.66-3.37-1.15-4.49,0-.11,0-.21,0-.32-.77-6.2-1.51-12.41-2.3-18.61a3.22,3.22,0,0,0-1.51-2.65,6.07,6.07,0,0,0-3.06-.58c-19.95.11-39.89.09-59.83.12.89-1.88,2.62-1.07,3.94-1.07q39.81,0,79.62.14c1.55,0,3.41-.63,4.4,1.36h0a3,3,0,0,1,.4.64A4.53,4.53,0,0,1,1630.5,758.7Z"/><path class="cls-27" d="M1633,754.91l-.19.67h0c-3.15,10.87-6.27,21.75-8.57,32.84v0a8.79,8.79,0,0,1,.34,1.93h0c.19,2.86-1,5.57-1.6,8.28-3.75,15.5-7.38,31-10.08,46.74-.3,1.69-.53,3.43-1.6,4.79h0a4.67,4.67,0,0,1-1,.95c-.8,1.26-1.57,1.18-2.31,0a3.77,3.77,0,0,1-.57-.86c-.67-1.38-.36-2.88-.11-4.36,3.16-18.32,7.3-36.43,11.89-54.44a8.39,8.39,0,0,1,1.36-3.15h0a3.35,3.35,0,0,1,.53-.6l.15-.15q4.41-16,8.84-32l.17-.59h0A2.69,2.69,0,0,1,1633,754.91Z"/><path class="cls-39" d="M673.67,656.36l-.08.07q-25,.09-49.91.18c-2.16,0-3.6-.16-4-3-1.77-12.6-3.62-25.19-6.57-37.58a18.07,18.07,0,0,1-.33-3.91c0-.51,0-1,0-1.54,20.34-.11,40.68-.55,61,.23a4.24,4.24,0,0,1,1,1.33l-1,0q-30,.33-60.08,0c1.61,3.41,1.78,7.21,2.58,10.83,1.94,8.77,3.28,17.65,4.51,26.53.63,4.49,2.78,5.69,7,5.63,13-.16,25.94-.09,38.92,0C669,655.07,671.52,654.7,673.67,656.36Z"/><path class="cls-40" d="M681.37,657.45c6.33-1.59,12.83,0,19.19-1,21.64,0,43.28,0,64.92.13,2.91,0,4.06-.92,4.59-3.74,1.11-6,.64-12,.42-17.9-.2-5.09,2.18-6.51,6.45-6.34,4.63.19,9.25.86,13.88.87q171.3.08,342.62.1c4.09,0,8.1-1.65,12.3-.17,1.62.57,2.7.89,2.7,2.79,0,4.81,1,9.52,1,14.37-.13,43.27,0,86.54-.17,129.82,0,4.74,1.17,6.16,6,6.14,39.12-.2,78.24-.11,117.37-.11q80.6,0,161.2.07c1.87,0,4.55-1.31,5.38,2-1.1,1-2.43.9-3.77.89-110.15-.69-220.29-.12-330.44-.3-1.16,0-2.33,0-3.49.09-8.88.66-14.35,6.3-14.46,15.25-.14,12.31,0,24.62-.06,36.93,0,2.46.29,5-1.4,7.19-4.09,1-8.26.45-12.39.45q-146.35.09-292.71,0c-1.17,0-2.34,0-3.5,0-6.06-.29-7.4-1.78-8-7.79-1.68-15.78-.78-31.6-1-47.4-.1-7.64-.1-7.7-7.88-7.7-17.32,0-34.64,0-51.95,0-2.65,0-5.38.24-7.68-1.53a1.27,1.27,0,0,1-.74-.17,1.1,1.1,0,0,1,.54-1.6c3-1.39,6.22-.9,9.36-.91q155.63,0,311.25,0c4.17,0,8.32,0,12.4-1.05a26.34,26.34,0,0,0,19.52-24.86q.15-33,0-65.93c-.09-14.39-10.75-25.56-25.19-26.72-2.66-.21-5.33-.11-8-.11q-164.37,0-328.74,0C687.68,659.12,684.19,660,681.37,657.45Z"/><path class="cls-40" d="M1149.38,463.37c0,17.15-.19,34.3.08,51.44.14,8.83-1,17.57-1,26.36,0,2.56-.92,3.55-3.51,3.52q-14-.15-28,0c-2.52,0-3.79-.8-3.54-3.44a19,19,0,0,0,0-2c0-47.61,0-95.23-.09-142.84,0-4.22.85-5.91,5.46-5.7,8.31.38,16.65.28,25,0,3.39-.1,4.92,1.11,5.19,4.29.16,1.81.39,3.63.39,5.45Q1149.41,431.9,1149.38,463.37Z"/><path class="cls-41" d="M1240.46,429.54a10.48,10.48,0,0,0-1.9,7.26c.44,4.29.14,8.64.14,13q0,144,0,288c0,1.83-.11,3.65-.17,5.48-1.94.54-1.1-1-1.11-1.64-.07-4.82,0-9.64,0-14.46l0-296.3C1238.58,430.77,1238.82,428.48,1240.46,429.54Z"/><path class="cls-42" d="M1449.22,830.32c0-.92,0-1.85.07-2.77,19.48-.06,39-.27,58.45-.09,4.41,0,5.68-1.18,5.63-5.59-.22-19.91-.17-39.82,0-59.74,0-2.93-1.25-7,3.87-7.57-2.47,1.52-2,4-2,6.26,0,20.61-.12,41.21.1,61.82,0,4.49-1.12,6-5.81,5.9-17.12-.28-34.24-.14-51.36,0-1.73,0-4.22-1.19-4.9,1.87C1451.91,831.63,1450.56,831.43,1449.22,830.32Z"/><path class="cls-43" d="M1085.36,844.47l0,7.22c-7.8-1-15.63-.46-23.44-.46q-176.49,0-353,.08c-7.34,0-7.34,0-7.34-7.15,0-12.14.08-24.29,0-36.43-.07-9.07.07-18.16-1.06-27.19,21.63,0,43.26,0,64.89-.15,3.21,0,4.4.92,4.34,4.23-.16,9.82.18,19.64-.12,29.44-.27,8.5,1,16.89,1,25.35,0,3.09,1.55,4,4.37,4,7-.08,14,0,21,0q140,0,280.06.06C1079.12,843.43,1082.5,841.88,1085.36,844.47Z"/><path class="cls-44" d="M1702.1,755.41c-22.14,29.65-43.18,60.06-62.54,91.61-.84,1.37-1.6,2.79-2.41,4.2h0l-.05.09-7-.05-19.78-.13.15-.84h0c3.56-19.67,7.86-39.17,12.7-58.55.18-.71.41-1.39.64-2.08.15-.41.3-.82.43-1.23a8.79,8.79,0,0,1,.34,1.93h0a15.69,15.69,0,0,1,4.72,12.44c-.29,8.24,0,16.49.09,24.74a4.21,4.21,0,0,1,2,3.42c-.17,6.32,1.55,12.71-.76,19,1.53,0,3.05.13,4.58.23a3.76,3.76,0,0,1,1.83.91c-.58-2.14,1-3.61,1.92-5.19,17.19-28,35.47-55.36,55.28-81.65,2.18-2.89,3.89-6.16,6.58-8.66a64.21,64.21,0,0,1-14.13.08c-7.44-.66-12.74,1.88-17.94,7.27-9.13,9.45-19.45,17.65-31.47,23.38-4.13,2-8.38,3.21-13,2.11,20.34-3.06,33.72-17.09,47.53-30.34a13.6,13.6,0,0,1,4.72-3.16h0a10,10,0,0,1,4.45-.53c6.39.58,12.88-.82,19.24.53.35.07.7.15,1,.25Z"/><path class="cls-15" d="M673.81,780.43l-.16-.15-.1-.1-.08-.07-.32-.31-.42-.2a2.9,2.9,0,0,0-.41-.16,4.83,4.83,0,0,0-1.55-.29c-11.47-.21-22.93-.1-34.4-.06a15.56,15.56,0,0,0-4.25.41,3.5,3.5,0,0,0-1.73,1c-.9,1-1.14,2.71-1.08,5.51a222.48,222.48,0,0,1-1.26,26.35c-.92,9.57-2.94,19-13.72,22.85a4.07,4.07,0,0,0-1.08.56,2.11,2.11,0,0,0-.93,1.86,3.28,3.28,0,0,0,.23,1.07c.45,3.44,1,6.87,1.32,10.32a2.43,2.43,0,0,0,1.58,2.38,3.93,3.93,0,0,0,1.3.18c17.48-.06,35-.25,52.44-.08,3.81,0,4.62-1,4.59-4.68C673.63,824.71,673.77,802.57,673.81,780.43Zm-.35,0c-1.67,2.36-1.34,5.09-1.34,7.71q-.06,26.42,0,52.84c0,8.78,0,8.71-8.77,8.81-15,.16-29.9-.48-44.86.37a13.37,13.37,0,0,0-2,.82c-2-4-2-8.51-2.79-12.8-.07-.45-.15-.9-.23-1.35,1.21-1,3.31-.46,4.65-1.24,8.31-4.85,10.61-13.14,11.43-21.5.93-9.68,1.85-19.47,1.12-29.25-.27-3.55,1.13-4.53,4.55-4.49,12.77.16,25.53.07,38.29.07Z"/><path class="cls-45" d="M1621.24,787.53c-3.53,16-7.12,31.94-10.56,47.93-1.11,5.17-1.81,10.42-2.7,15.63-21.26.11-42.51.19-63.77.36-2.19,0-2.35-1.07-2.33-2.75,0-5,.15-10-.06-15-.12-2.91,1-3.52,3.71-3.49,10.8.14,21.6.1,32.4,0,17.71-.07,29.6-10.39,32.39-28,1.73-5,.41-10.13.79-15.19.14-1.92,0-3.85,0-6.2C1615.24,782.77,1616.66,787.59,1621.24,787.53Z"/><path class="cls-46" d="M1449.22,830.32l4,0,59.92.11c2.62,5.91,1.6,12,.87,18.09-.4,3.33-3.24,2.79-5.49,2.8-13.49,0-27,.15-40.47-.06-3.62-.06-7.23,1.27-10.83,0h0c-2.62-.92-5.1.64-7.68.44l-.5-.52Q1449.15,840.79,1449.22,830.32Z"/><path class="cls-42" d="M1457.27,851.34c16.74-1.9,33.55-.76,50.32-.73,4.73,0,6.08-1.92,6.48-5.79.5-4.83-.15-9.59-.88-14.35,1.72-1.49,2-.1,2,1.13.07,5.48.11,11,0,16.44,0,2.76-1.68,4.3-4.44,4.31q-25.92,0-51.84-.06C1458.36,852.29,1457.81,851.67,1457.27,851.34Z"/><path class="cls-27" d="M614,921.32c4.71-1.77,9.39-3.76,14.57-3,1.43.21,3.49-.14,3.49,1.78s-2,1.17-3.2,1.19C624,921.37,619,921.32,614,921.32Z"/><path class="cls-46" d="M1448.08,880.35c.08-7.94.14-15.87.27-23.8,0-1.78-.46-3.66.74-5.29l.33.29a.6.6,0,0,1,.28.61c0,.22-.11.34-.17.34-.07,7.44-.07,14.88-.24,22.32C1449.25,876.69,1450,878.84,1448.08,880.35Z"/><path class="cls-38" d="M1607.28,802.41q-.1-9.35-.17-18.69c0-1.39,0-2.78,0-4.17a9.16,9.16,0,0,1,0-1.39.29.29,0,0,1,0-.09,1.75,1.75,0,0,1,.28-.74l0-.05a1.86,1.86,0,0,1,.92-.61,48.36,48.36,0,0,0-.52,7.1c0,4.26.24,8.52,0,12.78C1607.77,798.51,1608.35,800.54,1607.28,802.41Z"/><path class="cls-43" d="M699.64,779.46c0,.3.08.61.13.91l-26,.06h-.3a1.4,1.4,0,0,1,.71-1.62C682.73,777.66,691.24,776.57,699.64,779.46Z"/><path class="cls-27" d="M1540.87,830.71v18.63h-.46V830.67Z"/><path class="cls-27" d="M672.51,854.23a2.23,2.23,0,0,1-2.44,2,2.82,2.82,0,0,1-2.8-2.37c-.14-2.17,1.82-1.27,2.93-1.38S672.57,852.59,672.51,854.23Z"/><path class="cls-42" d="M1449.53,852.5a2.56,2.56,0,0,1-.11-1c2.6-.75,5.18-2.18,7.85-.21A22.38,22.38,0,0,1,1449.53,852.5Z"/><path class="cls-27" d="M1456.5,858.75a2.47,2.47,0,0,1-.59-3.86c.13-.17,1,0,1.31.23C1458.69,856.61,1457.77,857.69,1456.5,858.75Z"/><path class="cls-27" d="M1447.77,890.18c-.47.78-.61,2-1.92,1.73-1-.21-1.18-1-.8-1.88s.94-1.79,2.15-1.4C1447.9,888.85,1448.1,889.46,1447.77,890.18Z"/><path class="cls-47" d="M482.62,753.48l-.81,2c-15.87-16.36-31.52-32.94-47.65-49C397.22,669.66,358.61,634.78,315,605.84a4.77,4.77,0,0,1-.8-.6c-.86-.87-3-1.32-2.08-2.86,1-1.72,2.35,0,3.31.63,3.65,2.32,7.26,4.71,10.79,7.2,45.41,31.9,85.76,69.58,124.52,109,9.79,10,19.32,20.22,28.91,30.39C480.74,750.81,482.31,751.68,482.62,753.48Z"/><path class="cls-48" d="M777.71,290.92c-11.8.28-20-5.43-25.74-15.36-1.64-2.84-.86-3.74,2.3-3.73q21.81.12,43.64,0c4.23,0,4.38,2.18,3.1,5.1-3.36,7.72-12.71,14.85-20.81,14A23,23,0,0,0,777.71,290.92Z"/><path class="cls-49" d="M686.7,204c5.14,0,10.3.26,15.39-.21s10.06-1.74,15.15-2.67c-4,8.41-4,8.41.32,9.1-7,2.76-14,5.53-21.77,4.71-.48,0-1.32-.11-1.43.11-2.75,5.48-7.08,1.88-10.74,1.85-2.77,0-4.46,1.92-6.54,3.17-.75.46-1.43.83-2.24.26s-.52-1.05-.24-1.73C677.1,212.47,680.16,206.8,686.7,204Z"/><path class="cls-50" d="M815,195c9.39.83,17,5.18,23.46,11.86.91.94,2.08,2.25,1.45,3.49-.75,1.47-2.62,1.34-4.07,1.14-9.41-1.32-18.73-3.06-27.49-6.91-1.91-.84-4.43-1.76-4.28-4.27s2.59-3.25,4.58-4.12A13.79,13.79,0,0,1,815,195Z"/><path class="cls-51" d="M825.78,225.69a18.5,18.5,0,0,1-.73,3.85c-1.1,3.11-3,5.63-6.64,5.77s-5.53-2.42-6.86-5.44a12.19,12.19,0,0,1-.95-5.31c.15-5.8,3.71-10.42,7.95-10.25C822.51,214.47,825.73,219.09,825.78,225.69Z"/><path class="cls-51" d="M744.66,225.13a11.76,11.76,0,0,1-2.11,7.05c-2.9,4.19-7.77,4.25-10.82.19a11.77,11.77,0,0,1-2.23-7c-.17-6.22,3.25-11.09,7.7-11C741.42,214.44,744.73,219.23,744.66,225.13Z"/><path class="cls-52" d="M779.17,254.42c1.84-1.36,3.84-.22,5.7-.49,1.57-.22,3-.46,3.53-2.18a3.11,3.11,0,0,0-1.46-3.9c-11.76-4.95-5.21-14.72-6.24-22.45,1.81,1.95,1.12,4.37,1.29,6.63.18,2.49.4,5,.35,7.46s.74,4.21,3.3,5.37c4.7,2.12,6.2,5.37,4.48,8.42S783.33,256.9,779.17,254.42Z"/><path class="cls-53" d="M1438.5,346.86c-4.88-1.61-8.86-4-13.5-4.63-5.49-.71-14.26,2.94-14.85,9.87-.1-1.46-.23-2.28-.19-3,.08-1.69,1-3,5.18-10.62,2.47-3.53,2.43-14.18,7.42-22.37a0,0,0,0,0,0,0,21,21,0,0,1,4.46-5.23c1.24-1.05,7.15-14.81,9.08-14.34a7.57,7.57,0,0,1,1.72-.11,13.06,13.06,0,0,1,1.57.16h0c2.9.45,6.32,1.77,7.48,3.59.06.09.11.18.16.27C1439.16,314.74,1437.92,330.35,1438.5,346.86Z"/><path class="cls-13" d="M1477.14,477.77c-15.57-4.63-31.11-9.37-46.73-13.78-3.82-1.08-4.51-2.59-3.47-6.3,2.73-9.72,5.7-19.42,6.53-29.57a20.41,20.41,0,0,0-.19-2.91c2.25-15-2.2-28.76-8-42.23,4.14,2.4,8,5.44,12.6,6.87,3.29,1,2.64,4,3.07,6.18a99.53,99.53,0,0,0,15.9,38.21,71.06,71.06,0,0,0,17,17.3,12.27,12.27,0,0,1,4.33,5.11,25.92,25.92,0,0,1,4.19,15.92C1481.2,474.93,1480.14,477.31,1477.14,477.77Z"/><path class="cls-54" d="M1503.81,418c10.61,0,21.22,0,31.83,0,1.42,0,3.29-.72,4.17.73,1,1.68-.6,3.12-1.39,4.46-8.25,13.91-26.94,17.54-39.12,7.74-3.14-2.52-4.66-5.92-6.16-9.45-1-2.36.06-3,2.2-2.93,2.82,0,5.64,0,8.47,0Z"/><path class="cls-55" d="M1461.63,354c-1.63-.29-3.41.66-4.18-1.21-.51-1.21.27-2.3,1.09-3.11,6.44-6.32,13.62-11.13,23.14-10.84a15.55,15.55,0,0,1,4.81,1c1.84.68,3.9,1.46,3.87,4,0,2.24-1.93,3-3.55,3.73C1478.7,351.06,1470.05,352.53,1461.63,354Z"/><path class="cls-51" d="M1560.23,368.62c.08,5.25-2.93,9.39-6.85,9.44s-7-3.77-7.14-8.68c-.17-5.65,3.13-10.37,7.21-10.3C1557.3,359.14,1560.15,363.15,1560.23,368.62Z"/><path class="cls-56" d="M1473.15,368.74c-.05-5.48,3.13-9.79,7.1-9.65,3.58.13,6.76,4.68,6.74,9.65,0,5.15-3.14,9.29-7,9.25C1476,378,1473.19,374.16,1473.15,368.74Z"/><path class="cls-57" d="M1482.28,472.57l-4.19-15.92.89-1.57c2.76,2,6.83,2.11,8.56,5.71C1486.21,464.91,1485.25,469.19,1482.28,472.57Z"/><path class="cls-58" d="M1512.93,375.31c.25,5.74.82,11.51-.85,17.22-.51,1.74-2.54,2-4,2.71-1.71.86-3.33,1.9-2.83,4.11s2.51,2.3,4.37,2.42c1.29.08,2.64-.56,3.87.33-3.08,2.45-8.16,2.24-9.66-.66-1.78-3.44-.4-6.46,2.93-7.77,3.73-1.47,4.32-4.11,4.28-7.44,0-3.66,0-7.31,0-11Z"/><path class="cls-59" d="M1147.38,386.66H1117.5c-5.7-3-4-8.38-4.06-13.13-.07-12.73,0-12.73,12.67-12.73,6.14,0,12.29.08,18.44,0,2.5,0,4.42.59,4.68,3.25.67,6.88-.16,13.76-.42,20.63C1148.78,385.34,1147.88,386,1147.38,386.66Z"/><path class="cls-53" d="M1359.36,369.15a15.47,15.47,0,0,1,1.94-8.37C1360.85,363.61,1362.94,367,1359.36,369.15Z"/><path class="cls-53" d="M1357.34,377a16.3,16.3,0,0,1,2-7.54C1358.89,372,1360.87,375.22,1357.34,377Z"/><path class="cls-60" d="M1439.41,296.57h0c-2.47-2.71-2.86-5.94-2.38-9.88,1-8.25,1.34-16.57,1.89-24.87L1439,260l-.78-.36-56.85-25.92-.81-.18-.3-.06-1-.23c-.66,15.12-3.76,30-5.23,45-.52,5.27-3.47,10.87,1.18,16a2.74,2.74,0,0,1,.21,2.77,8.43,8.43,0,0,1-.69,1.49c-3.31,5.71-3.47,12-3.32,18.32h.89l.06-.26c0-6.68,2.79-13.14,3.47-19.77a21.43,21.43,0,0,0-1.17-10.2,5.58,5.58,0,0,1,.08-2.46c1.71-14.3,3.8-28.54,5.47-42.83a24.87,24.87,0,0,0,.2-7.15.74.74,0,0,0,.52-.05c1.15,1.5,3,2.11,4.58,2.89,16.33,7.77,32.86,15.09,49.3,22.63,1.06.48,2.15,1.11,3.33.8-.1.68-.21,1.36-.3,2-1.15,8.41-1.22,16.92-2.37,25.33-.47,3.38.16,6.28,2.35,8.65a7.57,7.57,0,0,0-1.72.11c-1.93-.47-7.84,13.29-9.08,14.34a21,21,0,0,0-4.46,5.23,7.77,7.77,0,0,0,2-2A89.81,89.81,0,0,1,1440,298l.44-.36A9.7,9.7,0,0,1,1439.41,296.57Z"/><path class="cls-61" d="M1178.23,135.89c-7.11,1.35-13.53-1-18.93-5-16.32-12.27-20.41-30.37-12.79-47.35a36.7,36.7,0,0,1,20-19.14c1.47-.61,3.11-1.29,4.79-.38C1156.9,68.29,1148,78.06,1145,92.54c-2.84,13.91,1.73,25.82,12.53,35.21C1163.48,132.93,1170.16,136.16,1178.23,135.89Z"/><path class="cls-2" d="M1180.22,136.26c-4.32,1.18-12,.89-17.4-1.48-6.75-2.95-13.53-5.68-18.83-11.46-8.27-9-9.63-19.48-8.19-30.86a30.46,30.46,0,0,1,11.1-19.65c3.68-3,7.55-8.06,13.89-7.14,1.1.16,2.39-1,3.6-1.56,2.3-1,4.61-2,7-.11C1156.9,68.29,1148,78.06,1145,92.54c-2.84,13.91,1.73,25.82,12.53,35.21,6,5.18,12.63,8.41,20.7,8.14Z"/><path class="cls-36" d="M699.64,779.46l-26,0c-6.22,1.13-12.52.61-18.75.41-15.88-.52-31.66,1.79-47.53,1.22-2.37-.08-4.54.75-6.76,1.39-.95-.61-.94-3-3-1.63-1.73-1.85-4-1.21-6.11-1.3-5.12-.22-10.3.49-15.35-1.09-12.47-3.92-20.51-14.4-20.6-27.42q-.18-25.92,0-51.86a11.78,11.78,0,0,0-4.08-9.61c-10-9.19-19.94-18.56-29.85-27.9-1-1-2.53-1.68-2.45-4.13H541c5.15,0,10.31,0,15.46,0,1.56,0,3.39.7,4.52-1.15.95.32,1.88,1.52,2.85,0,1.19,1.15,2.67,1.15,4.2,1.15q51.45.08,102.9.16a17.4,17.4,0,0,0,2.92-.47l7.55.23q43,.06,85.91.12,128.9,0,257.78-.09A29.27,29.27,0,0,1,1054.64,687c-.51,21.47-.59,43,0,64.42.37,12.84-11.88,28.29-28.31,28.07-17.82-.23-35.64,0-53.46,0Z"/><path class="cls-62" d="M1892,557.61q20.27-16.82,40.56-33.62c2.43-2,5-3.91,7.54-5.7,1-.65,2.16-2.4,3.34-.93s-.77,2.2-1.68,2.92c-6.1,4.85-12.35,9.51-18.35,14.48-10.45,8.66-20.75,17.5-31.11,26.25-1.14-1.12-.36-2.27-.33-3.37Z"/><path class="cls-63" d="M1950.84,695.56c-6.53,0-12.18-5.93-12.09-12.62a12.25,12.25,0,0,1,12.54-12.08,12.57,12.57,0,0,1,12.42,12.37C1963.83,690.08,1958.07,695.6,1950.84,695.56Z"/><path class="cls-64" d="M510,890.18a6.59,6.59,0,1,1,.13,13.18,6.93,6.93,0,0,1-6.84-6.55A6.78,6.78,0,0,1,510,890.18Z"/><path class="cls-37" d="M673.68,779.44c0,.25-.08.49-.13.74l0,.21h0v0h0c-12.76,0-25.52.09-38.29-.07-3.42,0-4.82.94-4.55,4.49.73,9.78-.19,19.57-1.12,29.25-.82,8.36-3.12,16.65-11.43,21.5-1.34.78-3.44.24-4.65,1.24a2.78,2.78,0,0,0-.88,1.88c-.08-.36-.15-.71-.23-1.07q-5.84-27.6-11.68-55.19a4,4,0,0,1,.06-1.34c.38-1.65,2-1.6,3.77-1.6l27.65,0,40.2-.06Z"/><path class="cls-9" d="M1379.63,846.7c-5.5,0-11,.08-16.49,0-3.9-.07-4.07,1.82-2.7,4.67,2,4.09,5.69,5.47,9.77,5.92a20.77,20.77,0,0,0,13.47-2.71c2.72-1.71,4-.85,5.49,1.53,4.43,6.94,4.41,7.75-3.42,10.64-10.39,3.84-20.77,4.21-30.82-1.44a18.76,18.76,0,0,1-9.64-13.28c-2.29-12,.94-22.29,10.78-29.68,10-7.51,21.26-8.38,32.54-3.14,9,4.19,13.4,15.3,11,25-.55,2.18-1.61,2.54-3.46,2.53C1390.62,846.67,1385.12,846.7,1379.63,846.7Z"/><path class="cls-9" d="M1138.51,816.8a21.67,21.67,0,0,1,21.69,21.65c0,11.66-10.19,21.87-21.79,21.74a22,22,0,0,1-21.68-22.31A21.66,21.66,0,0,1,1138.51,816.8Z"/><path class="cls-9" d="M1224.22,868.71c-6.66,0-13.33-.08-20,0-2.86,0-4.22-.58-3.55-3.87q6-29.32,11.79-58.69c.46-2.38,1.48-3.06,3.87-3.15,12.59-.45,12.55-.53,10,11.88s-4.94,25.15-7.62,37.68c-.69,3.22.24,3.95,3.28,3.9,8.29-.15,16.58.06,24.87-.11,3.06-.06,4.12.76,3.27,3.86-2.66,9.68.43,8.29-9.84,8.44-2.76,0-5.52,0-8.29,0Z"/><path class="cls-9" d="M1312.68,851.88c6.43-10.45,12.17-19.75,17.87-29.08,3.39-5.53,10.47-8.29,16.34-6,3.13,1.22.57,3-.15,4.22-8,13.08-16,26.08-24,39.11-.09.14-.21.26-.3.4-5.18,8.21-9.1,9.83-18.73,8.18-2-.35-2.33-1.5-2.65-3-3.35-15.26-6.66-30.52-10.08-45.77-.52-2.34-.16-3.18,2.46-3.38,11.7-.86,11.66-.93,14,10.55C1309,834.93,1310.72,842.71,1312.68,851.88Z"/><path class="cls-9" d="M1263,868.7c-7.19,0-7.25,0-5.92-6.86,2.59-13.37,5.31-26.72,7.88-40.1.48-2.55,1.29-3.86,4.31-3.93,11.33-.27,11.29-.41,9.06,10.67s-4.37,22-6.5,33C1270.46,868.68,1270.51,868.69,1263,868.7Z"/><path class="cls-9" d="M1289.32,801.46c-.12,5.19-4.46,9-10.06,8.84-5.08-.15-8.89-3.83-8.65-8.36.28-5.1,4.61-8.6,10.43-8.41C1286.23,793.71,1289.43,796.78,1289.32,801.46Z"/><path class="cls-65" d="M816.56,700.65q-99.16,0-198.32,0c-2.32,0-5.42,1.32-5.74-3.28-.34-4.82,2.18-4.85,5.74-4.85q133.38.09,266.76,0,65.68,0,131.37-.07c3.68,0,5.6.63,5.21,4.88-.25,2.67-1.27,3.38-3.71,3.34-6.16-.09-12.32,0-18.48,0Z"/><path class="cls-66" d="M793.55,714.45H985.83c3,0,6.12-.72,5.79,4.26-.2,3.09-1.18,4.07-4.14,3.94-4.16-.18-8.32,0-12.49,0q-186.54,0-373.08-.08c-2.15,0-5.57,1.88-6.2-2.66s1.24-5.51,5.55-5.5Q697.4,714.56,793.55,714.45Z"/><path class="cls-67" d="M834.79,744.51q-91.39,0-182.77,0c-3,0-5.65.32-5.36-4.19.19-3,1-4.05,4.07-4,10.65.14,21.3.06,32,.06q167.53,0,335.08-.07c3.9,0,6.53.34,5.8,5.26-.3,2-.88,3.06-3,2.95-1.5-.07-3,0-4.5,0H834.79Z"/><path class="cls-9" d="M1373.08,838.22h-9.46c-1.89,0-3-.59-2-2.66a13.23,13.23,0,0,1,10.7-8c4.66-.66,9,.16,12,4.21,1.2,1.59,2.24,3.64,1.33,5.49s-3,.85-4.59.92c-2.66.1-5.32,0-8,0Z"/><path class="cls-68" d="M1630.62,850c-.16.44-.34.88-.55,1.32a.61.61,0,0,1,0,.12c-2.52,1.68-1.3,3.78-1.47,5.71-.7,7.74,1.27,15.53-1,23.25-3.53,7.84-11.87,11.86-25.27,11.86q-171.78,0-343.56-.12c-2.77,0-5.55.17-8.32.25-2.69,1.59-6,1.56-9.31,1.56l-40.72,0q-47.92,0-95.84-.08c-11.06,0-21.1-1.91-27.09-8.86-1.25-1.45-2.48-2.92-2-4.69q-.12-13.17-.25-26.35c0-.75,0-1.5,0-2.25-.18-.2-.35-.39-.51-.59a7.55,7.55,0,0,1-.87-1.33,3.83,3.83,0,0,1,.88-4.78,7.21,7.21,0,0,1,.56-.53c0-.35,0-.69,0-1,.09-14,1-28-.19-41.87-.91-10.64,12.63-18.33,27.73-18.28q24,.08,48,.12h0q129.14.24,258.25.08h106.11q13.33,0,26.67,0h1.83q26.19,0,52.38,0c3.58,0,7.14,0,10.68.24l.34,0,.45,0,.27,0c.8.05,1.59.12,2.38.21.32,0,.64.06,1,.1l.37,0,.93.12c.38,0,.77.1,1.15.17l.51.07c.8.27,1.56.56,2.29.86h0a31.65,31.65,0,0,1,4.4,2.18l.26.16.1.06.4.27a20.08,20.08,0,0,1,2.2,1.66c.27.23.52.46.77.7h0a15.69,15.69,0,0,1,4.72,12.44c-.29,8.24,0,16.49.09,24.74a4.21,4.21,0,0,1,2,3.42C1631.21,837.3,1632.93,843.69,1630.62,850Z"/><path class="cls-36" d="M1283.52,827.66c-1.47-7.76-6-12.73-13.94-14.31a42.38,42.38,0,0,0-8.17-1c-9.35,0-18.69,0-28-.13-1.56,0-2,.41-1.94,2,.07,9.19,0,18.38,0,27.56v27.78c0,.89-.19,1.74,1.27,1.7,11.06-.26,22.13.5,33.17-.46,10.11-.88,15.52-5.43,17.52-15.17A71.74,71.74,0,0,0,1283.52,827.66Zm-33.09,30.87c-.91,0-1.81,0-2.71,0-1.28,0-1.23-.65-1.23-1.53v-.63c0-4.86,0-9.72,0-14.58s0-10,0-15c0-1.36.22-1.95,1.75-1.87,3.63.16,7.28,0,10.91.23a13.67,13.67,0,0,1,5,1c2.71,1.21,4.11,3.59,4.81,7.68a47,47,0,0,1-.16,16.34c-1,5.44-3.9,7.84-9.93,8.2l-1.07.05C1255.33,858.57,1252.88,858.52,1250.43,858.53Z"/><path class="cls-36" d="M1339.83,872a83.1,83.1,0,0,1-19.88-2.09c-1.13-.23-1.73-.58-1.68-2,.13-3.43.11-6.86,0-10.29,0-1.61.4-1.75,1.86-1.3a63.38,63.38,0,0,0,26.48,2.07c3.55-.42,5.2-1.65,5.74-4.06.6-2.67-.43-4.61-3.06-5.42-4-1.22-8.13-1.2-12.22-1.62a36.24,36.24,0,0,1-9.43-2,13.34,13.34,0,0,1-8.71-9.89,26.11,26.11,0,0,1-.46-9.6c1-7.37,4.59-11.39,12.25-13a66.12,66.12,0,0,1,32.58,1.08c1.52.43,2.09,1.1,2,2.69q-.3,4.82-.28,9.65c0,1.5-.57,1.53-1.74,1.13a58.92,58.92,0,0,0-22.34-2.7,16.42,16.42,0,0,0-4.45.77,4.21,4.21,0,0,0-3.24,4.63c.11,2.47.93,3.55,3.44,4.17,4.61,1.16,9.37,1.24,14,1.94a36.5,36.5,0,0,1,8,2,12.55,12.55,0,0,1,8.38,10.29,27,27,0,0,1,.14,8.79c-1.27,7.89-6.3,12.38-15.37,13.93A56.19,56.19,0,0,1,1339.83,872Z"/><path class="cls-69" d="M1426.27,825.6c-1.2-5.64-4.42-9.62-10-11.52a31.12,31.12,0,0,0-9.69-1.67c-9.4-.09-18.81,0-28.22-.13-1.57,0-1.74.6-1.74,1.91,0,.58,0,1.17,0,1.75,0,3.85,0,7.7,0,11.55v19.22q0,5.22,0,10.44,0,6,0,12v.35c0,1.23.16,1.82,1.64,1.78,3.91-.12,7.83-.11,11.75,0,1.44,0,1.67-.5,1.64-1.76,0-2,0-3.91,0-5.86,0-1.1,0-2.18,0-3.28h0c0-.44,0-.89,0-1.33-.09-1.79.38-2.26,2.21-2.25,6.23,0,12.49.51,18.68-.77,7.23-1.49,12.16-5.45,13.79-12.88A41,41,0,0,0,1426.27,825.6Zm-25.78,18.95h-1c-2,0-4-.09-6,.05-1.64.12-1.93-.5-1.87-2,.11-2.74,0-5.48,0-8.23s0-5.62,0-8.43c0-.56-.22-1.32.79-1.3s2,0,3,0a53.82,53.82,0,0,1,9.33.27c4.21.66,5.87,2.53,6.6,6.72.07.4.09.82.12,1.22C1412,841.84,1409.49,844.52,1400.49,844.55Z"/><path class="cls-69" d="M1566.29,872a85.68,85.68,0,0,1-19.84-2.08c-1.24-.25-1.84-.62-1.78-2.07.12-3.42.1-6.85,0-10.28,0-1.52.38-1.64,1.75-1.22a62.68,62.68,0,0,0,26.47,2.07c2.45-.3,5-.73,5.77-3.73.76-2.83-.25-4.9-3-5.76-3.84-1.19-7.86-1.19-11.81-1.59a36.42,36.42,0,0,1-9.84-2,13.3,13.3,0,0,1-8.6-9.73,26.09,26.09,0,0,1-.52-9.59c1-7.49,4.6-11.54,12.35-13.18a66.11,66.11,0,0,1,32.37,1.07c1.53.44,2.25,1.06,2.12,2.82-.26,3.2-.29,6.42-.3,9.64,0,1.41-.57,1.42-1.63,1.05-7.32-2.54-14.87-3.11-22.54-2.72a16.53,16.53,0,0,0-4.25.73c-2.36.77-3.4,2.19-3.35,4.56s.93,3.69,3.52,4.32c4.55,1.1,9.24,1.22,13.85,1.89a37.1,37.1,0,0,1,8,1.94,12.59,12.59,0,0,1,8.51,10.41,26.75,26.75,0,0,1,.1,8.79c-1.37,7.94-6.34,12.33-15.43,13.85A57.25,57.25,0,0,1,1566.29,872Z"/><path class="cls-69" d="M1484.29,834.5c0-7.62,0-14,0-20.38,0-1.42.35-1.88,1.81-1.84,3.78.11,7.56.12,11.34,0,1.59,0,1.91.45,1.9,2,0,11.52,0,23,0,34.56,0,.27,0,.55,0,.82.35,6.58,2.85,9.06,9.46,9.32a22.14,22.14,0,0,0,5.33-.27c3.59-.78,5.13-2.39,5.82-6a41.49,41.49,0,0,0,.46-7.79c0-10.21,0-20.43,0-30.65,0-1.52.34-2,1.92-1.94,3.84.12,7.69.07,11.54,0,1.06,0,1.61.15,1.59,1.42-.16,13,.27,25.91-.27,38.86a33.83,33.83,0,0,1-1,6.07c-1.52,6.66-5.67,10.78-12.36,12.25a52.67,52.67,0,0,1-23.27,0c-8.45-1.92-12.4-6.53-13.67-15.1C1483.79,848.33,1484.54,840.78,1484.29,834.5Z"/><path class="cls-36" d="M1128.38,841.71c0-9.19,0-18.38,0-27.57,0-1.39.31-1.87,1.8-1.86q20.29.08,40.61,0c1.27,0,1.64.33,1.59,1.6-.09,3-.12,6,0,9,.06,1.47-.53,1.66-1.78,1.65-8.38,0-16.76,0-25.15-.05-1.54,0-2.18.28-2.07,2a61.76,61.76,0,0,1,0,7.2c-.08,1.44.34,1.83,1.8,1.82,7.15-.08,14.3,0,21.44-.07,1.49,0,2.06.28,2,1.89-.14,2.95-.1,5.9,0,8.85.05,1.27-.33,1.62-1.6,1.61-7.15-.06-14.29.05-21.44-.09-1.91,0-2.28.56-2.18,2.28a70.44,70.44,0,0,1,0,7.41c-.07,1.39.43,1.69,1.74,1.68,8.38-.05,16.77,0,25.15-.07,1.78,0,2.19.51,2.1,2.18-.14,2.8-.09,5.62,0,8.43,0,1.18-.18,1.65-1.54,1.64q-20.4-.09-40.82,0c-1.49,0-1.64-.56-1.64-1.78C1128.4,860.23,1128.38,851,1128.38,841.71Z"/><path class="cls-36" d="M1177.7,841.46a63,63,0,0,1,1.2-14.46c2-9.32,7-13.89,16.55-15a89.87,89.87,0,0,1,26,.79c1.51.27,2.21.74,2.1,2.44a81.74,81.74,0,0,0,0,8.43c.07,1.67-.32,2.07-2,1.7a61.05,61.05,0,0,0-20-1.11c-4.9.56-7.38,2.84-8.15,7.74a62.74,62.74,0,0,0,.07,19.63c.75,4.76,3.45,7.19,8.28,7.67a64.69,64.69,0,0,0,20.26-1c1.21-.26,1.62-.09,1.6,1.17,0,3.23,0,6.45,0,9.67,0,.78-.14,1.21-1.06,1.38-9.93,1.86-19.89,2.4-29.86.49-7.91-1.52-12.05-6.79-13.64-14.36A66.13,66.13,0,0,1,1177.7,841.46Z"/><path class="cls-69" d="M1434.8,841.68c0-9.18,0-18.37,0-27.55,0-1.4.33-1.89,1.81-1.85,3.77.11,7.55.12,11.33,0,1.56,0,1.93.41,1.92,1.94-.06,14,0,28.1-.07,42.14,0,1.65.28,2.19,2.07,2.17,8-.11,16.07,0,24.11-.09,1.52,0,2,.33,1.94,1.91-.14,3.08-.09,6.16,0,9.25,0,1.16-.16,1.67-1.54,1.67q-20-.09-40,0c-1.57,0-1.57-.71-1.57-1.85Q1434.82,855.56,1434.8,841.68Z"/><path class="cls-36" d="M1308.77,842c0,9.12,0,18.24,0,27.36,0,1.6-.46,1.93-2,1.89-3.84-.11-7.69-.09-11.54,0-1.31,0-1.59-.4-1.59-1.63q.06-27.89,0-55.76c0-1.3.4-1.62,1.65-1.6,3.91.07,7.83.09,11.75,0,1.42,0,1.68.48,1.68,1.76C1308.75,823.36,1308.77,832.69,1308.77,842Z"/></g></g></svg>